<svg xmlns="http://www.w3.org/2000/svg" width="40" height="40" fill="none"><g fill="#000" clip-path="url(#clip0)"><path d="M24.69 20.31a.78.78 0 100 1.57.78.78 0 000-1.57z"/><path d="M7.98 28.89L.17 38.73A.78.78 0 00.78 40h38.44a.78.78 0 00.61-1.27l-7.81-9.84a.78.78 0 00-.61-.3h-6.85l5.85-9.16A12.51 12.51 0 0020 0 12.51 12.51 0 009.6 19.43l5.84 9.16H8.59c-.23 0-.46.11-.6.3zm-2.91 6.19h4.72l-2.67 3.36H2.4l2.67-3.36zm11.36-4.92l2.15 3.36h-5.56l2.67-3.36h.74zm7.14 0h.74l2.67 3.36h-5.55l2.14-3.36zm4.65 4.92l2.66 3.36H9.12l2.66-3.36h16.44zm4.66 3.36l-2.67-3.36h4.73l2.66 3.36h-4.72zm.82-4.92h-4.73l-2.66-3.36h4.72l2.67 3.36zM10.9 18.57a10.95 10.95 0 1120.04-6.07c0 2.17-.64 4.27-1.84 6.07 0 0 0 0 0 .01-.52.8-8.7 13.64-9.1 14.26-1-1.56-8.08-12.67-9.1-14.26 0 0 0 0 0-.01zm2.8 11.59l-2.67 3.36H6.31l2.66-3.36h4.73z"/><path d="M20 20.31A7.81 7.81 0 1020 4.7a7.81 7.81 0 000 15.62zm0-14.06a6.26 6.26 0 11-.01 12.51A6.26 6.26 0 0120 6.25zM23.3 22.98a.78.78 0 00-1.08.26l-2.89 4.8a.78.78 0 101.34.8l2.89-4.79a.78.78 0 00-.27-1.07z"/></g><defs><clipPath id="clip0"><path fill="#fff" d="M0 0h40v40H0z"/></clipPath></defs></svg>