<svg xmlns="http://www.w3.org/2000/svg" width="77" height="77" fill="none"><path fill="#000" d="M24.3 16.43a3.6 3.6 0 10-.01-7.2 3.6 3.6 0 000 7.2zm0-5.14a1.54 1.54 0 110 3.09 1.54 1.54 0 010-3.09zM24.8 26.7a1.03 1.03 0 10-2.05 0v2.05a1.03 1.03 0 102.06 0v-2.06zM23.78 31.83c-.57 0-1.03.46-1.03 1.02v2.06a1.03 1.03 0 102.06 0v-2.06c0-.56-.46-1.02-1.03-1.02zM19.68 31.83h2.05a1.03 1.03 0 100-2.06h-2.05a1.03 1.03 0 100 2.06zM25.84 29.77a1.03 1.03 0 100 2.06h2.05a1.03 1.03 0 100-2.06h-2.05zM15.37 19.5a1.1 1.1 0 10-2.2 0 1.1 1.1 0 002.2 0zM10.17 30.72a1.1 1.1 0 100 2.2 1.1 1.1 0 000-2.2z"/><path fill="#000" d="M63.16 40.04H60.9c.54-.77.86-1.7.86-2.72V19.15A4.78 4.78 0 0057 14.37H38.82a4.78 4.78 0 00-4.77 4.78v18.17c0 1.01.32 1.95.86 2.72H19.3a4.78 4.78 0 00-4.77 4.77V63a4.78 4.78 0 004.77 4.77H37.5c1.53 0 2.87-.73 3.75-1.85a4.75 4.75 0 003.74 1.85h18.18A4.78 4.78 0 0067.93 63V44.81a4.78 4.78 0 00-4.77-4.77zM36.1 19.14c0-1.5 1.22-2.71 2.72-2.71H57c1.5 0 2.72 1.22 2.72 2.72v18.17c0 1.5-1.22 2.72-2.72 2.72H38.82a2.72 2.72 0 01-2.72-2.72V19.15zm1.4 46.57H19.3a2.72 2.72 0 01-2.71-2.72V44.81c0-1.5 1.21-2.72 2.71-2.72H37.5c1.5 0 2.72 1.22 2.72 2.72V63c0 1.5-1.22 2.72-2.72 2.72zm28.38-2.72c0 1.5-1.22 2.72-2.72 2.72H44.98a2.72 2.72 0 01-2.72-2.72V44.81c0-1.5 1.22-2.72 2.72-2.72h18.18c1.5 0 2.72 1.22 2.72 2.72V63z"/><path fill="#000" d="M32.75 53a4.6 4.6 0 00-3.32-7.83h-5.65c-.57 0-1.03.46-1.03 1.03V61.6c0 .57.46 1.03 1.03 1.03h6.67A4.62 4.62 0 0035.07 58v-1.03a4.6 4.6 0 00-2.32-3.99zm-7.94-5.77h4.62a2.57 2.57 0 010 5.13H24.8v-5.13zM33.02 58a2.57 2.57 0 01-2.57 2.56h-5.64v-6.16H30.45a2.57 2.57 0 012.57 2.57v1.03zM54.28 47.23h3.38a1.03 1.03 0 100-2.06h-3.38a6.89 6.89 0 00-6.88 6.89v3.68c0 3.8 3.08 6.89 6.88 6.89h3.38a1.03 1.03 0 100-2.06h-3.38a4.83 4.83 0 01-4.83-4.83v-3.68a4.83 4.83 0 014.83-4.83zM41.94 36.9c.54.19 1.12-.1 1.3-.64l2.16-6.49h6.05l2.16 6.49a1.03 1.03 0 101.95-.65l-5.14-15.4c-.14-.42-.53-.7-.97-.7H47.4c-.45 0-.84.28-.98.7L41.3 35.6c-.18.54.11 1.12.65 1.3zm6.2-15.34h.57l2.05 6.16h-4.68l2.05-6.16z"/></svg>