<svg xmlns="http://www.w3.org/2000/svg" width="67" height="57" fill="none"><path fill="#000" d="M61.66 4.83h-3.6V2.77C58.06 1.24 56.6 0 54.81 0c-1.8 0-3.26 1.24-3.26 2.77v2.06h-2.19V2.77C49.36 1.24 47.9 0 46.11 0c-1.8 0-3.26 1.24-3.26 2.77v2.06s-6.11 0-6.67 0c-.56 0 0 .86 0 .86s-.56.86 0 .86 6.67 0 6.67 0v2.07c0 1.52 1.46 2.77 3.26 2.77 1.8 0 3.25-1.25 3.25-2.77V6.55h2.2v2.07c0 1.52 1.45 2.77 3.25 2.77s3.25-1.25 3.25-2.77V6.55h3.6c.66 0 1.2.46 1.2 1.01v6.76c-.64 0-55.4 0-58.61 0V7.56c0-.55.53-1 1.18-1h3.6v2.06c0 1.52 1.46 2.77 3.26 2.77 1.8 0 3.25-1.25 3.25-2.77V6.55h2.2v2.07c0 1.52 1.45 2.77 3.25 2.77s3.25-1.25 3.25-2.77V6.55s11.38 0 11.94 0c.55 0 .32-.86.32-.86s.23-.86-.32-.86c-.56 0-11.94 0-11.94 0V2.77C24.24 1.24 22.78 0 21 0c-1.8 0-3.26 1.24-3.26 2.77v2.06h-2.19V2.77C15.54 1.24 14.08 0 12.3 0c-1.8 0-3.26 1.24-3.26 2.77v2.06h-3.6c-1.77 0-3.2 1.23-3.2 2.73V52.3c0 2.6 2.47 4.7 5.52 4.7h5.75c.56 0 .05-.38.05-.86 0-.47.56-.86 0-.86h-5.8c-1.93 0-3.5-1.34-3.5-2.98v-4.23h58.6v4.23c0 1.64-1.57 2.98-3.5 2.98h-45.8c-.56 0-1.01.39-1.01.86 0 .48.45.86 1 .86h45.8c3.05 0 5.53-2.1 5.53-4.7 0-1.8 0-42.83 0-44.74 0-1.5-1.44-2.73-3.2-2.73zM46.98 9.36c-.22.19-.53.3-.87.3-.68 0-1.24-.46-1.24-1.04 0-3 0-2.85 0-5.85 0-.58.56-1.05 1.24-1.05.68 0 1.23.47 1.23 1.05 0 6.32.14 6.17-.36 6.59zm9.06-.74c0 .58-.55 1.05-1.23 1.05-.68 0-1.24-.47-1.24-1.05 0-3 0-2.85 0-5.85 0-.58.56-1.05 1.24-1.05.68 0 1.23.47 1.23 1.05v5.85zM19.75 2.77c0-.58.56-1.05 1.24-1.05.68 0 1.23.47 1.23 1.05v5.85c0 .58-.55 1.05-1.23 1.05-.68 0-1.24-.47-1.24-1.05 0-1.75 0-4.1 0-5.85zm-8.7 0c0-.58.56-1.05 1.24-1.05.68 0 1.23.47 1.23 1.05v5.85c0 .58-.55 1.05-1.23 1.05-.68 0-1.24-.47-1.24-1.05 0-1.75 0-4.1 0-5.85zm3.3 43.58H4.25v-8.92h10.1v8.92zm0-10.64H4.25V26.8h10.1v8.91zm0-10.76H4.25c0-1.81 0-7.11 0-8.91h10.1v8.91zm12.13 21.4H16.37v-8.92h10.1v8.92zm0-10.64H16.37V26.8h10.1v8.91zm0-10.76H16.37v-8.91h10.1v8.91zm12.12 21.4H28.5v-8.92h10.1v8.92zm0-10.64H28.5V26.8h10.1v8.91zm0-10.76H28.5v-8.91h10.1v8.91zm12.13 21.4h-10.1v-8.92h10.1v8.92zm0-10.64h-10.1V26.8h10.1v8.91zm0-10.76h-10.1v-8.91h10.1v8.91zm12.12 21.4h-10.1v-8.92h10.1v8.92zm0-10.64h-10.1V26.8h10.1v8.91zm0-10.76h-10.1v-8.91h10.1v8.91z"/><path fill="#000" d="M43.75 34.46c.42.37 1.13.33 1.5-.07l4.82-5.19c.34-.37.27-.9-.17-1.2a1.13 1.13 0 00-1.42.14l-4.1 4.43-1.53-1.3a1.14 1.14 0 00-1.43 0c-.4.34-.4.88 0 1.22l2.33 1.97zM8.18 23.72c.31 0 .6-.13.8-.33l4.8-5.19c.35-.37.28-.9-.16-1.2a1.13 1.13 0 00-1.42.14l-4.1 4.42-1.53-1.29a1.14 1.14 0 00-1.43 0c-.4.34-.4.88 0 1.22 2.49 2.1 2.49 2.23 3.04 2.23zM20.2 45.23c.32 0 .6-.12.8-.33l4.81-5.18c.35-.37.27-.91-.17-1.2a1.13 1.13 0 00-1.42.13l-4.1 4.43-1.53-1.3a1.14 1.14 0 00-1.43 0c-.39.34-.39.88 0 1.22 2.49 2.11 2.5 2.23 3.04 2.23z"/></svg>