<svg xmlns="http://www.w3.org/2000/svg" width="79" height="79" fill="none"><path fill="#95D148" d="M72.7 6.7h-4.24V3.84c0-2.12-1.72-3.84-3.84-3.84-2.1 0-3.83 1.72-3.83 3.84V6.7h-2.6V3.84C58.2 1.72 56.48 0 54.37 0c-2.12 0-3.84 1.72-3.84 3.84V6.7h-3.1c-.67 0-1.2.53-1.2 1.2 0 .65.53 1.18 1.2 1.18h3.1v2.86c0 2.12 1.72 3.84 3.84 3.84 2.1 0 3.83-1.72 3.83-3.84V9.08h2.6v2.86c0 2.12 1.7 3.84 3.82 3.84s3.84-1.72 3.84-3.84V9.08h4.25c.78 0 1.4.63 1.4 1.4v9.37c-.74 0-65.3 0-69.1 0v-9.37c0-.77.63-1.4 1.4-1.4h4.25v2.86c0 2.12 1.72 3.84 3.84 3.84 2.1 0 3.83-1.72 3.83-3.84V9.08h2.58v2.86c0 2.12 1.73 3.84 3.84 3.84 2.12 0 3.84-1.72 3.84-3.84V9.08h14.08c.65 0 1.2-.53 1.2-1.2 0-.65-.55-1.18-1.2-1.18H28.58V3.84c0-2.12-1.72-3.84-3.84-3.84-2.1 0-3.83 1.72-3.83 3.84V6.7h-2.57V3.84C18.33 1.72 16.6 0 14.5 0c-2.13 0-3.85 1.72-3.85 3.84V6.7H6.4c-2.08 0-3.78 1.7-3.78 3.78v62c0 3.6 2.93 6.52 6.52 6.52h2.07c.67 0 1.2-.53 1.2-1.2 0-.65-.53-1.18-1.2-1.18H9.15C6.86 76.62 5 74.76 5 72.5V66.6h69.1v5.87c0 2.26-1.85 4.12-4.13 4.12h-54c-.65 0-1.2.53-1.2 1.2 0 .65.55 1.18 1.2 1.18h54c3.6 0 6.52-2.92 6.52-6.5 0-2.5 0-59.37 0-62.02 0-2.08-1.7-3.78-3.8-3.78zm-17.3 6.27c-.27.27-.63.43-1.03.43-.8 0-1.46-.65-1.46-1.46 0-4.15 0-3.95 0-8.1 0-.8.66-1.46 1.47-1.46.8 0 1.45.66 1.45 1.46 0 8.76.16 8.55-.42 9.13zm10.68-1.03c0 .8-.65 1.46-1.46 1.46-.8 0-1.45-.65-1.45-1.46 0-4.15 0-3.95 0-8.1 0-.8.65-1.46 1.45-1.46.8 0 1.46.66 1.46 1.46v8.1zm-42.8-8.1c0-.8.66-1.46 1.46-1.46.8 0 1.46.66 1.46 1.46v8.1c0 .8-.65 1.46-1.46 1.46-.8 0-1.45-.65-1.45-1.46 0-2.42 0-5.67 0-8.1zm-10.25 0c0-.8.66-1.46 1.46-1.46.8 0 1.45.66 1.45 1.46v8.1c0 .8-.66 1.46-1.46 1.46-.8 0-1.47-.65-1.47-1.46 0-2.42 0-5.67 0-8.1zm3.9 60.4H5V51.87h11.92v12.35zm0-14.75H5V37.13h11.92V49.5zm0-14.9H5c0-2.53 0-9.88 0-12.37h11.92V34.6zm14.3 29.63H19.3V51.88h11.92v12.35zm0-14.74H19.3V37.13h11.92V49.5zm0-14.9H19.3V22.22h11.92V34.6zM45.5 64.22H33.6V51.88h11.9v12.35zm0-14.74H33.6V37.13h11.9V49.5zm0-14.9H33.6V22.22h11.9V34.6zm14.3 29.63H47.9V51.88h11.9v12.35zm0-14.74H47.9V37.13h11.9V49.5zm0-14.9H47.9V22.22h11.9V34.6zm14.3 29.63H62.2V51.88h11.9v12.35zm0-14.74H62.2V37.13h11.9V49.5zm0-14.9H62.2V22.22h11.9V34.6zM51.58 47.77c.5.5 1.34.45 1.78-.1l5.67-7.2c.4-.5.32-1.26-.2-1.67-.5-.4-1.26-.32-1.67.2l-4.84 6.14-1.8-1.8c-.46-.47-1.2-.47-1.68 0-.47.47-.47 1.22 0 1.68l2.74 2.75zM9.65 32.87c.36 0 .7-.17.93-.45l5.68-7.2c.4-.5.32-1.26-.2-1.66-.52-.4-1.26-.32-1.67.2l-4.86 6.13-1.8-1.8c-.46-.47-1.2-.47-1.68 0-.46.46-.46 1.2 0 1.68C9 32.7 9 32.88 9.66 32.88zM23.82 62.7c.37 0 .7-.18.94-.47l5.67-7.18c.4-.52.32-1.27-.2-1.68-.5-.4-1.26-.3-1.67.2l-4.84 6.14-1.8-1.8c-.46-.45-1.22-.45-1.68 0-.47.48-.47 1.23 0 1.7 2.93 2.93 2.93 3.1 3.58 3.1z"/></svg>