<svg xmlns="http://www.w3.org/2000/svg" width="72" height="71" fill="none"><g fill="#000" clip-path="url(#clip0)"><path d="M5.8 62.96H36v-2.3H5.8a3.46 3.46 0 01-3.48-3.43V6.85c0-1.9 1.56-3.44 3.49-3.44h51.1a3.46 3.46 0 013.48 3.44v26.33h2.32V6.85c0-3.16-2.6-5.73-5.8-5.73H5.8C2.6 1.12 0 3.7 0 6.85v50.38c0 3.16 2.6 5.73 5.8 5.73z"/><path d="M4.65 5.7h2.32V8H4.65V5.7zM9.29 5.7h2.32V8H9.3V5.7zM13.94 5.7h2.32V8h-2.32V5.7zM4.65 10.28h53.41v2.3H4.65v-2.3zM16.6 15.2l-2.95 2.9a5.88 5.88 0 00-7.73 1.16 5.68 5.68 0 00.4 7.7 5.88 5.88 0 007.8.38 5.69 5.69 0 001.17-7.61l2.95-2.91-1.64-1.62zM10.45 26.3a3.46 3.46 0 01-3.48-3.43 3.46 3.46 0 014.97-3.1l-2.3 2.29 1.63 1.62 2.32-2.28c.22.45.34.96.35 1.47 0 1.9-1.56 3.43-3.49 3.43zM19.74 19.44h19.74v2.3H19.74v-2.3zM19.74 24.02h8.13v2.3h-8.13v-2.3zM30.2 24.02h16.25v2.3H30.2v-2.3zM41.8 19.44h11.62v2.3H41.81v-2.3zM16.6 28.94l-2.95 2.9A5.88 5.88 0 005.92 33a5.69 5.69 0 00.4 7.7 5.88 5.88 0 007.8.38 5.69 5.69 0 001.17-7.61l2.95-2.91-1.64-1.62zm-6.15 11.12a3.46 3.46 0 01-3.48-3.44 3.46 3.46 0 014.97-3.1l-2.3 2.29 1.63 1.62 2.32-2.28c.22.46.34.96.35 1.47 0 1.9-1.56 3.44-3.49 3.44zM19.74 33.19h19.74v2.29H19.74v-2.3zM19.74 37.77h8.13v2.29h-8.13v-2.3zM30.2 37.77h9.28v2.29H30.2v-2.3zM41.8 33.19h4.65v2.29h-4.64v-2.3zM16.6 42.68l-2.95 2.91a5.88 5.88 0 00-7.73 1.16 5.69 5.69 0 00.4 7.7 5.88 5.88 0 007.8.38 5.69 5.69 0 001.17-7.62l2.95-2.9-1.64-1.63zM10.45 53.8a3.46 3.46 0 01-3.48-3.44 3.46 3.46 0 014.97-3.09l-2.3 2.28 1.63 1.62 2.32-2.28c.22.46.34.96.35 1.47 0 1.9-1.56 3.44-3.49 3.44zM19.74 46.93h15.1v2.29h-15.1v-2.3zM19.74 51.5h8.13v2.3h-8.13v-2.3zM30.2 51.5h4.64v2.3h-4.65v-2.3zM54.58 69.83A17.3 17.3 0 0072 52.65a17.3 17.3 0 00-17.42-17.17 17.3 17.3 0 00-17.42 17.17 17.32 17.32 0 0017.42 17.18zm0-32.06a15 15 0 0115.1 14.88 15 15 0 01-15.1 14.9 15 15 0 01-15.1-14.9 15.01 15.01 0 0115.1-14.88z"/><path d="M47.5 53.29l-2.08 1.02 2.32 4.58a1.16 1.16 0 001.86.3l13.93-13.74-1.64-1.62-12.8 12.61-1.6-3.15z"/></g><defs><clipPath id="clip0"><path fill="#fff" d="M0 0h72v71H0z"/></clipPath></defs></svg>