<svg width="40" height="40" viewBox="0 0 40 40" fill="none" xmlns="http://www.w3.org/2000/svg">
<g clip-path="url(#clip0)">
<path d="M15.6618 28.2881H9.90489C9.47169 28.2881 9.12059 28.6393 9.12059 29.0724C9.12059 29.5055 9.47176 29.8567 9.90489 29.8567H15.6618C16.095 29.8567 16.4461 29.5055 16.4461 29.0724C16.4461 28.6393 16.095 28.2881 15.6618 28.2881Z" fill="black"/>
<path d="M17.7175 28.2886C16.7081 28.2886 16.7065 29.8573 17.7175 29.8573C18.7269 29.8572 18.7286 28.2886 17.7175 28.2886Z" fill="black"/>
<path d="M39.9999 7.52729C40.0001 7.50119 39.9988 7.47502 39.9962 7.44901C39.996 7.44635 39.9953 7.44369 39.995 7.44104C39.9924 7.41822 39.9892 7.39549 39.9846 7.37291C39.9825 7.36244 39.9795 7.35237 39.9769 7.34197C39.9734 7.32737 39.9702 7.31283 39.9656 7.29838C39.962 7.28627 39.9573 7.27471 39.9529 7.26283C39.9485 7.25057 39.9445 7.2383 39.9395 7.22619C39.9338 7.2126 39.927 7.19971 39.9206 7.18658C39.9159 7.17666 39.9117 7.16666 39.9063 7.1569C39.8956 7.13705 39.8838 7.11791 39.8715 7.09916C39.8697 7.0965 39.8683 7.09369 39.8665 7.09096C39.8518 7.06924 39.8362 7.04838 39.8195 7.0283C39.8192 7.02791 39.8188 7.02744 39.8185 7.02705C39.814 7.02158 39.8089 7.0169 39.8042 7.0115C39.7921 6.99791 39.7802 6.9844 39.7674 6.97158C39.7581 6.96236 39.7481 6.95393 39.7384 6.94525C39.7292 6.93705 39.7203 6.92854 39.7108 6.9208C39.6993 6.9115 39.6874 6.90307 39.6756 6.89447C39.6669 6.88815 39.6583 6.8815 39.6493 6.87557C39.6373 6.86768 39.6249 6.86049 39.6126 6.8533C39.6028 6.8476 39.5932 6.8415 39.5832 6.83619C39.5716 6.8301 39.5598 6.82471 39.5479 6.81916C39.5364 6.81377 39.5251 6.80822 39.5133 6.80338C39.5024 6.79893 39.4913 6.79525 39.4801 6.79119C39.467 6.7865 39.4541 6.78174 39.4406 6.77768C39.4299 6.77447 39.419 6.77205 39.4081 6.76932C39.3942 6.7658 39.3806 6.76213 39.3664 6.75932C39.3542 6.75697 39.3418 6.75549 39.3295 6.75369C39.3167 6.75182 39.304 6.74955 39.2909 6.74838C39.2733 6.74666 39.2556 6.74619 39.2378 6.74572C39.2304 6.74549 39.2231 6.74463 39.2157 6.74463H39.212C39.2119 6.74463 39.2118 6.74463 39.2117 6.74463H0.788532C0.788298 6.74463 0.788141 6.74463 0.787907 6.74463H0.784391C0.777126 6.74463 0.770016 6.74549 0.762829 6.74572C0.74486 6.74619 0.726969 6.74674 0.709157 6.74846C0.69611 6.74971 0.683454 6.75197 0.670641 6.75385C0.658297 6.75564 0.646032 6.75705 0.633766 6.75947C0.619469 6.76228 0.605641 6.76596 0.591578 6.76963C0.580875 6.77229 0.57025 6.77471 0.559625 6.77783C0.545953 6.78189 0.53275 6.78682 0.51939 6.79166C0.508609 6.79549 0.49775 6.79908 0.487047 6.80354C0.474937 6.80846 0.463375 6.81416 0.451578 6.81971C0.440015 6.8251 0.428453 6.83025 0.417046 6.83635C0.406656 6.84182 0.396812 6.84799 0.386734 6.85393C0.374624 6.86096 0.362593 6.86791 0.350874 6.87572C0.341655 6.8819 0.332827 6.88869 0.323843 6.89525C0.312202 6.90361 0.300561 6.91189 0.28939 6.92096C0.279624 6.92885 0.270561 6.9376 0.261186 6.94596C0.251733 6.95447 0.241889 6.96275 0.232749 6.97182C0.21978 6.98463 0.207827 6.99822 0.195717 7.01197C0.191108 7.01721 0.18603 7.02197 0.181577 7.02736C0.181264 7.02775 0.180952 7.02822 0.180639 7.02861C0.16392 7.04869 0.148139 7.06955 0.133608 7.09127C0.131811 7.09393 0.130405 7.09674 0.128608 7.09947C0.116264 7.11822 0.104467 7.13736 0.0937638 7.15721C0.0885294 7.16697 0.0843106 7.17697 0.0794669 7.1869C0.0730606 7.20002 0.0663418 7.21299 0.0606387 7.22651C0.0556386 7.23854 0.0517324 7.25072 0.0472792 7.26291C0.0429823 7.27486 0.0382167 7.28658 0.0344667 7.29877C0.0302479 7.31307 0.0270448 7.32752 0.023451 7.34197C0.0208729 7.35237 0.017826 7.3626 0.0156385 7.37322C0.0111072 7.3958 0.00782596 7.41854 0.00524782 7.44135C0.00493532 7.44401 0.00431032 7.44658 0.00407594 7.44932C0.00141968 7.47533 0.000169678 7.50151 0.000169678 7.5276C0.000169678 7.52783 9.15527e-05 7.52838 9.15527e-05 7.52893V32.4714C9.15527e-05 32.472 0.000169678 32.4725 0.000169678 32.4731C0.000169678 32.4992 0.00149781 32.5254 0.00407594 32.5514C0.00438844 32.5546 0.00509157 32.5576 0.0054822 32.5607C0.00798221 32.5831 0.0111853 32.6053 0.0156385 32.6274C0.017826 32.6384 0.0210291 32.6489 0.0236854 32.6597C0.0271229 32.6737 0.0302479 32.6879 0.0345448 32.7018C0.038373 32.7143 0.0432167 32.7262 0.0476699 32.7385C0.0519668 32.7504 0.0557168 32.7622 0.0607168 32.7739C0.0664981 32.7879 0.0734512 32.8011 0.0799356 32.8145C0.084545 32.824 0.0886075 32.8338 0.0937638 32.8432C0.104701 32.8633 0.116576 32.8828 0.129155 32.9018C0.130717 32.9043 0.131967 32.9068 0.133608 32.9091C0.148295 32.9308 0.164077 32.9517 0.180639 32.9718C0.180952 32.9722 0.181264 32.9727 0.181577 32.9731C0.183999 32.9761 0.186811 32.9785 0.189311 32.9814C0.204467 32.999 0.220171 33.0161 0.236733 33.0322C0.244546 33.0398 0.252749 33.0469 0.260796 33.0541C0.272905 33.065 0.285093 33.0757 0.297827 33.0857C0.307437 33.0934 0.317358 33.1007 0.327358 33.1078C0.339546 33.1164 0.35189 33.1249 0.364546 33.1329C0.374781 33.1394 0.385093 33.1458 0.39564 33.1518C0.409234 33.1596 0.42314 33.1668 0.437203 33.1737C0.447203 33.1786 0.456968 33.1837 0.467125 33.1881C0.48314 33.1951 0.499625 33.2014 0.516109 33.2074C0.524703 33.2105 0.533297 33.214 0.542047 33.2169C0.561031 33.2231 0.580484 33.2282 0.600094 33.2329C0.606891 33.2345 0.613688 33.2366 0.620485 33.2381C0.642282 33.2427 0.664547 33.2461 0.687047 33.2489C0.691969 33.2495 0.696813 33.2506 0.701813 33.2511C0.727204 33.2538 0.752985 33.255 0.779001 33.2553C0.780876 33.2553 0.782751 33.2556 0.784626 33.2556C0.784938 33.2556 0.785251 33.2556 0.785563 33.2556H39.2144C39.2147 33.2556 39.215 33.2556 39.2153 33.2556C39.2172 33.2556 39.2191 33.2553 39.2209 33.2553C39.247 33.2551 39.2728 33.2538 39.2982 33.2511C39.3031 33.2507 39.3078 33.2495 39.3127 33.249C39.3353 33.2461 39.3577 33.2429 39.3795 33.2381C39.3863 33.2367 39.3929 33.2346 39.3996 33.2329C39.4193 33.2282 39.4389 33.2232 39.4581 33.2169C39.4667 33.2141 39.4752 33.2107 39.4837 33.2075C39.5003 33.2015 39.517 33.1952 39.533 33.1881C39.543 33.1837 39.5527 33.1787 39.5627 33.1738C39.5769 33.1668 39.5908 33.1596 39.6045 33.1518C39.6149 33.1458 39.6252 33.1394 39.6354 33.1329C39.6481 33.1249 39.6605 33.1164 39.6727 33.1077C39.6827 33.1006 39.6925 33.0933 39.7021 33.0857C39.7149 33.0757 39.727 33.065 39.7392 33.054C39.7473 33.0468 39.7555 33.0398 39.7633 33.0322C39.7799 33.0159 39.7956 32.9989 39.8107 32.9813C39.8132 32.9784 39.816 32.976 39.8185 32.973C39.8188 32.9726 39.8191 32.9722 39.8194 32.9718C39.8361 32.9517 39.8519 32.9307 39.8664 32.909C39.8681 32.9067 39.8693 32.9041 39.8709 32.9018C39.8834 32.8827 39.8954 32.8632 39.9063 32.8431C39.9113 32.8337 39.9154 32.8239 39.9201 32.8144C39.9267 32.8009 39.9335 32.7877 39.9393 32.7739C39.9442 32.7621 39.9481 32.75 39.9524 32.7381C39.9568 32.7259 39.9617 32.7141 39.9655 32.7017C39.9698 32.6876 39.9729 32.6734 39.9764 32.6592C39.9791 32.6485 39.9822 32.6381 39.9844 32.6272C39.9888 32.6051 39.992 32.5829 39.9946 32.5606C39.995 32.5574 39.9957 32.5544 39.996 32.5512C39.9987 32.5252 39.9999 32.499 39.9999 32.4729C39.9999 32.4724 40 32.4718 40 32.4713V7.52893C40 7.52838 39.9999 7.52783 39.9999 7.52729ZM37.0484 8.31331L20.0005 22.5095L16.2631 19.3979L2.9519 8.31331H37.0484ZM1.56869 9.20269L14.5355 20.0006L1.56869 30.7978V9.20269ZM2.95198 31.6871L15.7612 21.0212L19.4987 24.1328C19.6441 24.2538 19.8223 24.3144 20.0005 24.3144C20.1787 24.3144 20.357 24.2538 20.5024 24.1328L24.239 21.0212L37.0482 31.6871H2.95198ZM38.4315 30.7978L25.4647 20.0005L38.4316 9.20269V30.7978H38.4315Z" fill="black"/>
</g>
<defs>
<clipPath id="clip0">
<rect width="40" height="40" fill="white"/>
</clipPath>
</defs>
</svg>
