<svg xmlns="http://www.w3.org/2000/svg" width="32" height="33" fill="none"><path fill="#fff" d="M4.7 33h10.43V21.27h-3.76V17.4h3.76v-4.83c0-2.67 2.1-4.84 4.68-4.84h4.7v3.87h-3.75c-1.03 0-1.88.87-1.88 1.94v3.86h5.46l-.62 3.87H18.9V33h8.43c2.6 0 4.7-2.17 4.7-4.83V4.83C32 2.17 29.9 0 27.3 0H4.7C2.1 0 0 2.17 0 4.83v23.34C0 30.83 2.1 33 4.7 33zM1.86 4.83c0-1.6 1.27-2.9 2.82-2.9h22.6c1.56 0 2.82 1.3 2.82 2.9v23.34c0 1.6-1.26 2.9-2.8 2.9h-6.57V23.2h4.54l1.24-7.73h-5.8v-1.93h5.64V5.8H19.8c-3.6 0-6.55 3.04-6.55 6.77v2.9H9.5v7.73h3.75v7.87H4.7c-1.56 0-2.83-1.3-2.83-2.9V4.83z"/></svg>