<svg width="57" height="58" viewBox="0 0 57 58" fill="none" xmlns="http://www.w3.org/2000/svg">
<path d="M51.6557 14.3713L37.8729 0.346753C37.6546 0.124722 37.3588 0 37.0503 0H10.657C7.53957 0 5.00352 2.58077 5.00352 5.75286V52.2473C5.00352 55.4192 7.53969 58 10.6571 58H46.3429C49.4603 58 51.9965 55.4193 51.9965 52.2473V15.2083C51.9964 14.8944 51.8738 14.5933 51.6557 14.3713ZM38.2139 4.04175L48.0249 14.0248H41.5409C40.6521 14.0248 39.8164 13.6726 39.1881 13.0332C38.5597 12.394 38.2138 11.5438 38.2139 10.6395V4.04175ZM49.6698 52.2471C49.6698 54.1139 48.1774 55.6325 46.3429 55.6325H10.657C8.82241 55.6325 7.32994 54.1139 7.32994 52.2471V5.75286C7.33006 3.88611 8.82252 2.36735 10.657 2.36735H35.8873V10.6392C35.8871 12.1759 36.4751 13.6206 37.5429 14.7071C38.6108 15.7936 40.0305 16.392 41.5408 16.392H49.6697V52.2471H49.6698Z" fill="black"/>
<path d="M16.453 34.4082H15.9322C15.2899 34.4082 14.769 34.9381 14.769 35.5919C14.769 36.2456 15.2899 36.7756 15.9322 36.7756H16.453C17.0954 36.7756 17.6163 36.2456 17.6163 35.5919C17.6163 34.9381 17.0954 34.4082 16.453 34.4082Z" fill="black"/>
<path d="M41.0676 34.4082H20.2164C19.574 34.4082 19.0531 34.9381 19.0531 35.5919C19.0531 36.2456 19.574 36.7756 20.2164 36.7756H41.0676C41.71 36.7756 42.2309 36.2456 42.2309 35.5919C42.2309 34.9381 41.71 34.4082 41.0676 34.4082Z" fill="black"/>
<path d="M16.453 29H15.9322C15.2899 29 14.769 29.5299 14.769 30.1837C14.769 30.8374 15.2899 31.3673 15.9322 31.3673H16.453C17.0954 31.3673 17.6163 30.8374 17.6163 30.1837C17.6163 29.5299 17.0954 29 16.453 29Z" fill="black"/>
<path d="M41.0676 29H20.2164C19.574 29 19.0531 29.5299 19.0531 30.1837C19.0531 30.8374 19.574 31.3673 20.2164 31.3673H41.0676C41.71 31.3673 42.2309 30.8374 42.2309 30.1837C42.2309 29.5299 41.71 29 41.0676 29Z" fill="black"/>
<path d="M16.453 23.5913H15.9322C15.2899 23.5913 14.769 24.1212 14.769 24.775C14.769 25.4287 15.2899 25.9587 15.9322 25.9587H16.453C17.0954 25.9587 17.6163 25.4287 17.6163 24.775C17.6163 24.1212 17.0954 23.5913 16.453 23.5913Z" fill="black"/>
<path d="M41.0676 23.5913H20.2164C19.574 23.5913 19.0531 24.1212 19.0531 24.775C19.0531 25.4287 19.574 25.9587 20.2164 25.9587H41.0676C41.71 25.9587 42.2309 25.4287 42.2309 24.775C42.2309 24.1212 41.71 23.5913 41.0676 23.5913Z" fill="black"/>
</svg>
