<svg xmlns="http://www.w3.org/2000/svg" width="79" height="82" fill="none"><path fill="#95D148" d="M65.45 35.64c-.6-.25-1.27.05-1.5.66-.66 1.66-2.2 2.73-3.92 2.73-1.13 0-2.2-.45-3-1.28-.4-.42-.7-.9-.92-1.45-.23-.6-.9-.9-1.5-.66-.6.25-.87.95-.63 1.56.32.85.8 1.6 1.43 2.25 1.24 1.28 2.88 2 4.63 2 2.67 0 5.05-1.68 6.05-4.25.24-.6-.04-1.3-.63-1.56zM53.37 27.4c-.63 0-1.15.55-1.15 1.2v.68c0 .66.52 1.2 1.15 1.2.64 0 1.16-.54 1.16-1.2v-.67c0-.65-.52-1.2-1.16-1.2zM66.68 27.4c-.64 0-1.16.55-1.16 1.2v.68c0 .66.52 1.2 1.16 1.2.64 0 1.15-.54 1.15-1.2v-.67c0-.65-.5-1.2-1.15-1.2zM25.76 35.64c-.6-.25-1.27.05-1.5.66-.66 1.66-2.2 2.73-3.92 2.73-1.13 0-2.2-.45-3-1.28-.4-.42-.7-.9-.9-1.45-.25-.6-.93-.9-1.52-.66-.6.25-.88.95-.64 1.56.33.84.8 1.6 1.44 2.25 1.23 1.28 2.88 2 4.62 2 2.68 0 5.05-1.68 6.06-4.25.24-.6-.05-1.3-.64-1.56zM13.7 27.4c-.65 0-1.17.55-1.17 1.2v.68c0 .66.52 1.2 1.16 1.2.63 0 1.15-.54 1.15-1.2v-.67c0-.65-.52-1.2-1.16-1.2zM27 27.4c-.65 0-1.17.55-1.17 1.2v.68c0 .66.52 1.2 1.16 1.2.63 0 1.15-.54 1.15-1.2v-.67c0-.65-.52-1.2-1.16-1.2zM77.84 20.72c.64 0 1.16-.53 1.16-1.2V16.2c0-4.74-3.7-8.6-8.27-8.6h-1.56l-.2-.45c-.93-2.25-3.06-3.7-5.43-3.7h-7.67c-8.17 0-14.82 6.9-14.82 15.37v24.53c0 3.55 2.8 6.44 6.2 6.44h6.63v1.7h-27.4v-2.3c1.4-.68 2.68-1.6 3.82-2.72 2.42-2.4 3.94-5.53 4.36-8.93 2.35 0 4.26-1.98 4.26-4.42V31.6c0-1.07-.38-2.06-1-2.83l2.67-10.94c.14-.65-.23-1.3-.85-1.46-.62-.16-1.25.23-1.4.87l-2.47 10.13c-.35-.1-.72-.17-1.1-.2v-4.04c0-.38-.17-.74-.47-.97-.28-.22-.66-.3-1-.18-6.35 2.02-11.9 1.9-16.1-.3-3.1-1.67-4.4-3.97-4.42-3.98-.26-.48-.8-.72-1.3-.58s-.87.62-.87 1.16c0 2.98-.6 3.62-3.62 3.84-.6.04-1.08.56-1.08 1.2v3.86c-.42.02-.83.1-1.2.23-.5-1.96-.83-3.42-.92-4.17-.18-1.5-.06-6 0-7.6 0 0 0-.02 0-.04C3.8 13.6 5.34 12 7.23 12h1.76c.3 0 .6-.12.82-.35l4.14-4.3c.83-.86 2.07-1.23 3.22-.94l14.56 3.6c.77.18 1.55.28 2.34.28 2.3 0 4.53-.8 6.3-2.28.04-.03.08-.06.15 0 .08.04.07.08.06.12l-.88 3.6c-.15.64.22 1.3.84 1.46.62.16 1.25-.23 1.4-.87l.88-3.6c.26-1.07-.15-2.14-1.04-2.74-.9-.6-2-.55-2.83.14-1.37 1.14-3.1 1.77-4.87 1.77-.6 0-1.2-.07-1.8-.2L17.7 4.1c-1.93-.5-4 .12-5.4 1.58L8.5 9.62H7.22c-3.16 0-5.73 2.67-5.75 5.95 0 .46-.22 6 0 7.95.13 1 .53 2.8 1.2 5.36-.57.75-.9 1.7-.9 2.72v1.53c0 2.44 1.9 4.42 4.25 4.42.63 5.2 3.8 9.52 8.18 11.65v2.3h-2.4c-.72 0-1.42.07-2.1.23C9.14 50.7 8.08 50 6.86 50H4.04C1.8 50 0 51.9 0 54.2v6.54c0 1.7.97 3.15 2.35 3.8v12.82c0 .66.52 1.2 1.16 1.2h33.67c.64 0 1.16-.54 1.16-1.2V61.28c0-2.95-1.27-5.6-3.26-7.4h18.8v.6c0 3.48 5.02 6.47 5.6 6.8.17.1.36.16.56.16.2 0 .38-.05.56-.16.56-.33 5.57-3.32 5.57-6.8v-.6h2.4c3.93 0 7.13 3.33 7.13 7.4v14.88h-3.25V68.1c0-.66-.52-1.2-1.15-1.2-.64 0-1.16.54-1.16 1.2v8.06H49.9V62.34c0-.66-.5-1.2-1.14-1.2H41.8c-.62 0-1.14.54-1.14 1.2 0 .66.52 1.2 1.15 1.2h5.8v13.82c0 .66.52 1.2 1.16 1.2h28.1c.63 0 1.15-.54 1.15-1.2V61.28c0-5.4-4.22-9.8-9.42-9.8h-2.4v-1.7h6.6c3.43 0 6.22-2.88 6.22-6.43V25.2c0-.67-.52-1.2-1.16-1.2-.64 0-1.15.53-1.15 1.2v2.7c-.65-.43-1.4-.7-2.23-.72v-5.8c0-2.75-.8-5.4-2.32-7.66-.18-.28-.47-.46-.8-.5-.3-.05-.63.04-.88.26-5.08 4.33-11.5 6.7-18.1 6.7-1.82 0-3.64-.17-5.4-.52-.33-.07-.67.02-.93.23-.27.2-.43.53-.44.88 0 .2-.02.4-.02.6v5.8c-.82.03-1.57.3-2.2.73v-9.08c0-7.16 5.6-12.98 12.5-12.98h7.66c1.44 0 2.75.9 3.32 2.27l.5 1.18c.17.44.6.73 1.05.73h2.33c3.28 0 5.96 2.78 5.96 6.2v3.32c0 .67.5 1.2 1.14 1.2zM8.24 36.3c-.04-.65-.55-1.15-1.17-1.15H6.02c-1.07 0-1.94-.9-1.94-2.02V31.6c0-1.1.87-2.02 1.94-2.02h1.03c.64 0 1.16-.53 1.16-1.2V24.4c2.42-.36 3.78-1.34 4.37-3.24.83.83 1.96 1.76 3.44 2.57 5.4 2.95 11.7 2.3 16.47 1v3.65c0 .67.52 1.2 1.16 1.2h1.03c1.07 0 1.94.9 1.94 2.02v1.53c0 1.1-.87 2.02-1.94 2.02H33.6c-.6 0-1.12.5-1.15 1.14-.16 3.2-1.5 6.2-3.75 8.44-1.12 1.1-2.4 1.98-3.82 2.56 0 0 0 0-.02 0-1.42.6-2.95.92-4.52.92-1.6 0-3.12-.32-4.52-.9-.02-.02-.04-.03-.07-.03-4.22-1.8-7.27-6-7.52-11zm15.93 13.78v4.4c0 1.07-.4 2.07-1.12 2.82-.73.75-1.7 1.16-2.7 1.16-2.12 0-3.84-1.78-3.84-3.97v-4.42c1.23.35 2.52.54 3.84.54 1.3 0 2.6-.2 3.83-.54zM2.3 60.74V54.2c0-.98.8-1.8 1.74-1.8h2.82c.53 0 .96.46.96 1v8.14c0 .55-.43 1-.96 1H4.04c-.95 0-1.73-.8-1.73-1.8zm33.7.54v14.88h-3.23V68.1c0-.66-.52-1.2-1.16-1.2-.63 0-1.15.54-1.15 1.2v8.06H10.23V68.1c0-.66-.52-1.2-1.16-1.2-.64 0-1.16.54-1.16 1.2v8.06H4.68V64.94h2.2c1.8 0 3.27-1.53 3.27-3.4V54.1c.53-.14 1.1-.2 1.65-.2h2.4v.6c0 3.5 2.75 6.37 6.14 6.37 1.64 0 3.18-.67 4.34-1.87 1.16-1.2 1.8-2.8 1.8-4.5v-.6h2.4c3.94 0 7.13 3.3 7.13 7.38zm27.85-6.8c0 1.34-2.08 3.22-3.82 4.36-1.75-1.14-3.83-3.02-3.83-4.35v-4.42c1.22.35 2.5.54 3.82.54 1.3 0 2.6-.2 3.83-.54v4.4zM76.7 36.83v6.53c0 2.23-1.76 4.04-3.9 4.04h-3.82c.34-.3.68-.6 1-.92 2.42-2.4 3.95-5.53 4.37-8.93.86 0 1.66-.27 2.34-.73zm-31-7.24h1.04c.64 0 1.16-.53 1.16-1.2v-6.12c1.47.22 2.97.33 4.48.33 6.67 0 13.2-2.28 18.52-6.42.82 1.6 1.25 3.38 1.25 5.2v7c0 .67.52 1.2 1.16 1.2h1.05c1.07 0 1.94.9 1.94 2.02v1.53c0 1.1-.88 2.02-1.95 2.02h-1.06c-.62 0-1.13.5-1.16 1.14-.16 3.2-1.5 6.2-3.75 8.44-1.13 1.1-2.42 1.97-3.8 2.55-.03 0-.05 0-.07.02-1.42.6-2.94.9-4.5.9-1.6 0-3.13-.32-4.52-.9-.02-.02-.04-.03-.06-.03-4.23-1.8-7.28-6-7.53-11-.02-.65-.52-1.15-1.14-1.15H45.7c-1.07 0-1.94-.9-1.94-2.02V31.6c0-1.1.87-2.02 1.95-2.02zm0 7.97c.5 4 2.5 7.48 5.37 9.84h-3.8c-2.16 0-3.9-1.82-3.9-4.05v-6.53c.67.46 1.47.73 2.33.73z"/></svg>