<svg xmlns="http://www.w3.org/2000/svg" width="94" height="94" fill="none"><g fill="#95D148" clip-path="url(#clip0)"><path d="M46.64 0A24.05 24.05 0 0032.3 4.97a24.64 24.64 0 00-8.55 12.21 1.38 1.38 0 102.63.81c1.32-4.25 4.01-8.1 7.59-10.83a21.32 21.32 0 0112.7-4.4 21.4 21.4 0 0115.45 6.2 21.4 21.4 0 016.43 15.35c0 6.89-3.34 13.42-8.92 17.47a12.67 12.67 0 00-4.33 5.49l-1.68 4.15h-1.96v-8.06a1.38 1.38 0 10-2.75 0v8.06h-3.84V36.05h3.84v1.44a1.38 1.38 0 102.75 0v-1.44h2.26a4.7 4.7 0 000-9.37h-.33a4.7 4.7 0 00-4.68 4.69v1.93h-3.84v-1.93a4.7 4.7 0 00-4.68-4.69h-.33a4.7 4.7 0 000 9.37h2.26v15.37h-1.96l-1.68-4.16a12.4 12.4 0 00-4.25-5.42 21.6 21.6 0 01-8.98-18.34 1.38 1.38 0 10-2.76-.1c0 .21 0 .42-.01.63a24.36 24.36 0 0010.14 20.04 9.64 9.64 0 013.3 4.23l1.57 3.85a4.62 4.62 0 001.77 8.45 7.62 7.62 0 006.15 6.41v7a7.95 7.95 0 00-4.77-1.95 1.37 1.37 0 10-.16 2.75 5.24 5.24 0 014.93 5.23v3.55H38.6a5.25 5.25 0 01-5.24-5.24v-3.3c0-.14.1-.25.24-.25h1.3a1.38 1.38 0 100-2.75h-1.3a3 3 0 00-3 3v3.3a8 8 0 008 8h7.02v6.27a1.38 1.38 0 102.76 0v-6.28h7.2a8 8 0 008-8v-3.3a3 3 0 00-3-3h-6.96c-2 0-3.84.75-5.24 1.97v-7a7.62 7.62 0 006.15-6.41 4.63 4.63 0 001.77-8.45l1.56-3.85a9.92 9.92 0 013.4-4.3A24.4 24.4 0 0071.3 24.32c0-6.56-2.57-12.7-7.25-17.31a24.14 24.14 0 00-17.42-7zm5.03 31.37c0-1.07.87-1.93 1.93-1.93h.33a1.93 1.93 0 010 3.86h-2.26v-1.93zm-13.53 0c0-1.07.87-1.93 1.93-1.93h.33c1.06 0 1.93.86 1.93 1.93v1.93h-2.26a1.94 1.94 0 01-1.93-1.93zM53.62 74.8h6.96c.14 0 .25.1.25.24v3.3a5.25 5.25 0 01-5.25 5.25h-7.2v-3.55a5.25 5.25 0 015.24-5.24zM47 64.39a4.86 4.86 0 01-4.72-3.74h9.44A4.86 4.86 0 0147 64.4zm6.81-6.49H40.2a1.87 1.87 0 010-3.73h13.63a1.87 1.87 0 010 3.73zM80.84 45.85h-2.7a1.38 1.38 0 100 2.75h2.7a1.38 1.38 0 100-2.75zM75.9 37.04c.18 0 .35-.03.52-.1l2.5-1a1.38 1.38 0 00-1.02-2.55l-2.5 1a1.38 1.38 0 00.5 2.65zM76.4 58.4l-2.22-1.53a1.38 1.38 0 10-1.57 2.27l2.22 1.53a1.37 1.37 0 001.92-.35c.43-.62.27-1.48-.35-1.91zM15.86 45.85h-2.7a1.38 1.38 0 100 2.75h2.7a1.38 1.38 0 100-2.75zM15.08 35.94l2.5 1a1.37 1.37 0 001.79-.76c.28-.7-.06-1.5-.76-1.79l-2.5-1a1.38 1.38 0 00-1.03 2.55zM19.82 56.87l-2.22 1.54a1.38 1.38 0 101.57 2.26l2.22-1.53a1.38 1.38 0 00-1.57-2.27z"/></g><defs><clipPath id="clip0"><path fill="#fff" d="M0 0h94v94H0z"/></clipPath></defs></svg>