<svg xmlns="http://www.w3.org/2000/svg" width="32" height="32" fill="none"><path fill="#fff" d="M4.7 32h22.6c2.6 0 4.7-2.1 4.7-4.7V4.7C32 2.1 29.9 0 27.3 0H4.7C2.1 0 0 2.1 0 4.7v22.6C0 29.9 2.1 32 4.7 32zM1.86 4.7c0-1.56 1.27-2.83 2.82-2.83h22.6c1.56 0 2.82 1.27 2.82 2.82v22.6c0 1.56-1.26 2.82-2.8 2.82H4.68c-1.56 0-2.83-1.26-2.83-2.8V4.68zM15.5 25c4.7 0 8.5-3.8 8.5-8.5S20.2 8 15.5 8 7 11.8 7 16.5s3.8 8.5 8.5 8.5zm0-15.1c3.65 0 6.6 2.95 6.6 6.6 0 3.65-2.95 6.6-6.6 6.6-3.65 0-6.6-2.95-6.6-6.6 0-3.65 2.95-6.6 6.6-6.6zM25.5 10c1.38 0 2.5-1.35 2.5-3s-1.12-3-2.5-3S23 5.35 23 7s1.12 3 2.5 3zm0-4c.46 0 .83.45.83 1s-.37 1-.83 1c-.46 0-.83-.45-.83-1s.37-1 .83-1z"/></svg>