<svg width="58" height="58" viewBox="0 0 58 58" fill="none" xmlns="http://www.w3.org/2000/svg">
<g clip-path="url(#clip0)">
<path d="M28.9998 2.50614e-07C20.3012 -0.00114201 12.0614 3.90246 6.55261 10.6344C1.0438 17.3664 -1.15221 26.2156 0.57012 34.742V34.8C0.571635 34.9568 0.61502 35.1103 0.695786 35.2447C2.61373 43.8857 8.373 51.1778 16.3346 55.0456C24.2962 58.9134 33.5883 58.9335 41.5664 55.1C46.4862 57.1716 51.7941 58.1607 57.1298 58C57.5237 57.9705 57.8601 57.7043 57.9792 57.3276C58.0984 56.951 57.9764 56.5397 57.6711 56.289C54.5391 53.6983 53.1664 49.3 52.6154 45.8297C56.1343 40.925 58.0182 35.0363 57.9998 29C57.9998 12.9837 45.016 2.50614e-07 28.9998 2.50614e-07ZM55.9118 26.1H41.3344C40.6961 26.0974 40.0849 25.8414 39.6353 25.3882C39.1857 24.935 38.9345 24.3217 38.9371 23.6833C38.9397 22.5322 38.4849 21.4272 37.6727 20.6114C36.8605 19.7956 35.7576 19.3359 34.6064 19.3333H33.4851C32.1504 19.3333 31.0684 18.2514 31.0684 16.9167C31.0684 15.582 32.1504 14.5 33.4851 14.5H39.0918C41.4867 14.4894 43.4225 12.5449 43.4224 10.15C43.4109 8.85536 44.4295 7.78549 45.7231 7.73333C51.4531 12.2345 55.1262 18.8559 55.9118 26.1ZM5.57745 15.4667H20.0774C21.4121 15.4667 22.4941 16.5486 22.4941 17.8833C22.4941 19.218 21.4121 20.3 20.0774 20.3H15.5438C13.1413 20.3 11.1938 22.2476 11.1938 24.65C11.1938 27.0524 13.1413 29 15.5438 29H24.5144C25.8491 29 26.9311 30.082 26.9311 31.4167C26.9311 32.7514 25.8491 33.8333 24.5144 33.8333H2.37779C1.21763 27.5255 2.35258 21.0106 5.57745 15.4667ZM2.79345 35.7667H24.5144C26.9169 35.7667 28.8644 33.8191 28.8644 31.4167C28.8644 29.0142 26.9169 27.0667 24.5144 27.0667H15.5438C14.2091 27.0667 13.1271 25.9847 13.1271 24.65C13.1271 23.3153 14.2091 22.2333 15.5438 22.2333H20.0291C22.4316 22.2333 24.3791 20.2858 24.3791 17.8833C24.3791 15.4809 22.4316 13.5333 20.0291 13.5333H6.76645C15.1301 1.52891 31.5192 -1.65645 43.7704 6.34133C42.3599 7.0868 41.4807 8.5546 41.4891 10.15C41.4917 10.7884 41.2405 11.4016 40.791 11.8548C40.3414 12.3081 39.7302 12.5641 39.0918 12.5667H33.4851C31.0827 12.5667 29.1351 14.5142 29.1351 16.9167C29.1351 19.3191 31.0827 21.2667 33.4851 21.2667H34.6064C35.2448 21.2692 35.856 21.5253 36.3056 21.9785C36.7552 22.4317 37.0063 23.045 37.0038 23.6833C37.0038 26.0782 38.9396 28.0227 41.3344 28.0333H56.0664C56.1704 30.6379 55.8903 33.2437 55.2351 35.7667H36.8684C35.7173 35.7692 34.6144 36.229 33.8022 37.0448C32.99 37.8605 32.5352 38.9655 32.5378 40.1167C32.5404 40.7584 32.2866 41.3746 31.8328 41.8284C31.379 42.2821 30.7628 42.5359 30.1211 42.5333H24.5144C23.3634 42.5316 22.2597 42.9912 21.4501 43.8093C20.2186 45.0555 19.8527 46.9177 20.5211 48.5372C21.1896 50.1566 22.7625 51.2186 24.5144 51.2333H25.6358C26.2742 51.2359 26.8854 51.4919 27.335 51.9452C27.7845 52.3984 28.0357 53.0116 28.0331 53.65V56.0667C16.0527 55.6361 5.78275 47.3761 2.79345 35.7667ZM54.7518 56.0667C47.1151 55.7863 42.0498 53.0893 41.5181 53.0893C40.7738 53.0893 37.0521 55.7767 29.9181 55.9893V53.65C29.9184 51.2737 28.0118 49.337 25.6358 49.3H24.5144C23.1798 49.3 22.0978 48.218 22.0978 46.8833C22.0978 45.5486 23.1798 44.4667 24.5144 44.4667H30.1211C32.516 44.456 34.4518 42.5116 34.4518 40.1167C34.4517 38.7895 35.522 37.7106 36.8491 37.7H54.6358C53.7328 40.3244 52.4284 42.7929 50.7691 45.0177C50.619 45.2238 50.5565 45.4809 50.5951 45.733C51.1364 48.894 52.2481 53.012 54.7518 56.0667Z" fill="black"/>
</g>
<defs>
<clipPath id="clip0">
<rect width="58" height="58" fill="white"/>
</clipPath>
</defs>
</svg>
