<svg xmlns="http://www.w3.org/2000/svg" width="69" height="86" fill="none"><path fill="#95D148" fill-rule="evenodd" d="M56.37 35.48c-.24.04-.47.2-.64.57-.36.75-.6 1.76-.86 2.97-.02.07-.03.14-.05.2-.25 1.16-.54 2.46-1 3.85-.96 2.94-2.68 6.24-6.4 9.2-1.24.97-2.57 2.05-3.66 3.18-1.1 1.13-1.92 2.3-2.18 3.43-1.1 4.7.8 7.5 2.2 8.27.7.38 1.4.35 1.98.06.6-.27 1.12-.82 1.45-1.46.16-.32.27-.75.37-1.27.06-.32.1-.65.16-1 .04-.25.07-.5.12-.75.2-1.27.5-2.7 1.23-3.94 1.2-1.64 2.9-3.1 4.5-4.5.4-.35.77-.68 1.14-1 .25-.24.5-.46.75-.68.86-.76 1.7-1.5 2.44-2.24.96-.95 1.72-1.88 2.13-2.8 1.4-3.15.66-6.78-.64-9.25-.66-1.22-1.44-2.15-2.13-2.57-.34-.22-.65-.3-.9-.25zm3.26 2.7c1.32 2.52 2.1 6.24.65 9.5-.43.96-1.23 1.9-2.18 2.87-.74.74-1.6 1.5-2.46 2.26-.25.23-.5.45-.74.67-.38.33-.77.67-1.16 1-1.6 1.4-3.26 2.85-4.43 4.45-.7 1.2-.98 2.58-1.2 3.84-.03.25-.07.5-.1.74-.06.36-.1.7-.17 1-.1.54-.2 1-.38 1.35-.35.7-.9 1.3-1.57 1.6-.67.32-1.45.36-2.23-.07-1.53-.83-3.44-3.8-2.33-8.56.27-1.2 1.15-2.42 2.25-3.56 1.1-1.14 2.45-2.23 3.67-3.2 3.7-2.92 5.38-6.17 6.33-9.08.45-1.37.74-2.66 1-3.8 0-.08.02-.15.04-.22.27-1.2.52-2.24.9-3.03.2-.4.47-.65.82-.7.35-.08.72.04 1.1.27.74.46 1.55 1.43 2.2 2.7z" clip-rule="evenodd"/><path fill="#95D148" d="M55.73 36.05c.17-.36.4-.53.64-.57.25-.05.56.03.9.25.7.42 1.47 1.35 2.12 2.58 1.3 2.48 2.04 6.1.63 9.26-.4.92-1.17 1.85-2.12 2.8-.73.73-1.57 1.48-2.43 2.24-.25.22-.5.44-.75.67-.37.33-.75.66-1.14 1-1.6 1.4-3.3 2.87-4.5 4.5-.72 1.26-1.03 2.68-1.23 3.95-.05.25-.08.5-.12.74-.05.36-.1.7-.16 1-.1.53-.2.96-.36 1.28-.32.64-.83 1.2-1.44 1.47-.6.3-1.28.33-1.98-.05-1.4-.77-3.3-3.58-2.2-8.27.26-1.14 1.1-2.3 2.18-3.43 1.1-1.13 2.42-2.2 3.65-3.18 3.74-2.96 5.46-6.26 6.43-9.2.45-1.4.74-2.7 1-3.84l.04-.2c.27-1.22.5-2.23.86-2.98z"/><path fill="#95D148" fill-rule="evenodd" d="M46.7 66.06s0 0 0-.02c0 0 0-.02-.02-.03 0 0 0-.03-.02-.05 0 0 0 0 0-.02v.02" clip-rule="evenodd"/><path fill="#95D148" d="M46.1 61.8h.04l.37 4.03-.04.02c-.1.04-.25.08-.44.15-.38.12-.93.3-1.6.5-1.34.42-3.15.98-5.07 1.52-1.9.54-3.9 1.07-5.63 1.44-.86.2-1.65.33-2.3.42-.68.08-1.22.1-1.58.06-.72-.1-1.35-.73-1.67-1.48-.3-.76-.27-1.57.26-2.03.32-.27.84-.55 1.5-.83.67-.28 1.48-.56 2.38-.83 1.8-.55 3.96-1.06 6.03-1.5 2.07-.44 4.06-.8 5.53-1.08.73-.14 1.34-.24 1.76-.3.2-.04.37-.07.5-.1z"/><path fill="#95D148" fill-rule="evenodd" d="M30.27 72.66c-.1.1-.17.2-.2.26-.26.8-.46 1.5-.54 2.03-.04.27-.05.5-.03.68.02.17.07.28.14.35.04 0 .08.02.13.02.1 0 .27 0 .47 0 .4-.03.93-.08 1.58-.16 1.3-.15 3-.4 4.76-.7 1.75-.27 3.55-.6 5-.88 1.48-.3 2.6-.54 3.02-.7.4-.16.87-.55 1.27-1.06.4-.5.76-1.12.94-1.72.2-.6.22-1.14 0-1.53-.2-.38-.64-.65-1.48-.65-1.72 0-5.4.7-8.75 1.6-1.67.45-3.24.95-4.43 1.44-.6.24-1.1.48-1.45.7-.2.1-.33.22-.43.32zm6.23-2.72c3.34-.9 7.06-1.6 8.82-1.6.9 0 1.46.3 1.72.78.27.5.23 1.12.03 1.74-.2.63-.56 1.28-1 1.8-.4.54-.9.97-1.37 1.15-.45.18-1.6.44-3.06.73-1.47.28-3.26.6-5.02.9-1.75.27-3.47.52-4.77.68-.65.08-1.2.14-1.6.16-.2 0-.37 0-.5 0-.05 0-.1 0-.15 0-.04-.02-.1-.04-.14-.08-.13-.13-.2-.3-.22-.52-.03-.2 0-.47.03-.75.08-.55.3-1.26.55-2.06.05-.13.14-.26.26-.37.12-.12.28-.24.47-.35.38-.24.9-.5 1.5-.73 1.2-.5 2.78-1 4.45-1.46zm2.8 5.76c-1.42.05-2.88.38-3.78 1.16-.9.77-1.5 2.14-1.87 3.38-.36 1.24-.5 2.33-.5 2.53 0 0 0 0 .02.04.02.05.04.1.07.13.07.1.16.22.28.35.23.28.56.6.92.94.35.33.74.66 1.1.93.35.27.66.48.88.57.03 0 .08.02.16 0 .08 0 .18-.03.3-.07.23-.1.53-.24.86-.44.67-.4 1.48-.98 2.27-1.63.8-.65 1.57-1.36 2.15-2 .3-.3.54-.6.72-.87.18-.26.3-.47.3-.63.04-.16.07-.3.1-.48.12-.6.25-1.24.25-1.8 0-.72-.2-1.3-.8-1.6-.64-.3-1.98-.55-3.4-.5zm0-.27c1.45-.05 2.84.2 3.54.54.74.36.94 1.06.94 1.82 0 .6-.13 1.25-.24 1.86-.04.16-.07.3-.1.46-.03.2-.16.47-.35.74-.2.27-.45.58-.75.9-.6.65-1.38 1.36-2.17 2-.8.67-1.62 1.27-2.3 1.67-.34.2-.65.37-.9.47-.14.04-.26.08-.37.1-.1 0-.2 0-.3-.04-.24-.1-.57-.33-.93-.6-.36-.28-.75-.6-1.12-.95-.36-.32-.7-.66-.93-.94-.13-.14-.23-.27-.3-.38-.04-.06-.07-.1-.1-.16 0-.04-.03-.1-.03-.15 0-.23.13-1.35.5-2.6.37-1.26.98-2.7 1.94-3.52.97-.83 2.52-1.17 3.96-1.22z" clip-rule="evenodd"/><path fill="#95D148" d="M30.08 72.92c.02-.07.08-.16.2-.26.1-.1.23-.2.4-.32.37-.22.87-.46 1.46-.7 1.2-.5 2.76-1 4.43-1.44 3.34-.9 7.03-1.6 8.75-1.6.84 0 1.28.27 1.5.65.2.4.18.94 0 1.53-.2.6-.54 1.2-.95 1.72-.4.5-.86.9-1.27 1.06-.42.16-1.54.4-3 .7-1.47.3-3.27.6-5.02.9-1.75.28-3.46.53-4.76.68-.65.08-1.2.13-1.58.15-.2 0-.36 0-.47 0-.05 0-.1 0-.12 0 0-.02 0-.02 0-.02-.08-.07-.13-.18-.15-.35-.02-.18 0-.4.03-.68.08-.54.28-1.23.55-2.03zM35.52 76.86c.9-.78 2.36-1.1 3.8-1.16 1.42-.05 2.76.2 3.4.5.6.3.8.88.8 1.6 0 .56-.13 1.2-.24 1.8-.04.16-.07.3-.1.47-.02.16-.13.37-.3.63-.2.27-.44.56-.73.88-.58.63-1.35 1.34-2.14 2-.78.64-1.6 1.22-2.26 1.63-.33.2-.63.36-.86.45-.12.04-.22.07-.3.08-.08 0-.13 0-.16 0-.22-.1-.53-.3-.9-.58-.34-.27-.73-.6-1.08-.93-.36-.33-.7-.66-.92-.94-.12-.13-.2-.25-.28-.35-.03-.04-.05-.08-.07-.12 0-.02 0-.03 0-.03 0-.2.12-1.3.48-2.53.37-1.24.96-2.6 1.87-3.38z"/><path fill="#95D148" fill-rule="evenodd" d="M63.47 17.7c-.48.2-.87.43-1.1.62-.45.4-1.22 1.1-1.8 1.8-.28.36-.52.7-.65 1.02-.14.32-.15.57-.05.75.26.45.52.73.8.92.27.18.6.28.98.34.06 0 .2 0 .4-.07.2-.08.44-.18.72-.32.55-.27 1.2-.67 1.87-1.13.65-.46 1.3-1 1.8-1.53.5-.54.84-1.06.94-1.53.1-.5.2-.88.26-1.16 0-.04.02-.1.03-.13.06-.2.1-.32.1-.42 0-.06 0-.1 0-.1 0-.02 0-.02 0-.04-.03 0-.06-.03-.1-.05-.06-.03-.12-.06-.2-.1-.07-.02-.17-.03-.33-.02-.16 0-.35.03-.57.08-.44.08-.98.23-1.53.4-.54.2-1.1.4-1.58.63zm3.65-1.4c.17 0 .32 0 .44.06 0 0 0 0 .02 0 .07.03.14.06.2.1.05 0 .1.04.15.1.05.03.1.1.1.15.02.08.02.15 0 .22 0 .1-.05.26-.1.47 0 .03-.02.07-.03.1-.07.28-.16.65-.26 1.14-.1.54-.5 1.12-1 1.66-.53.56-1.18 1.1-1.85 1.57-.67.47-1.35.87-1.9 1.15-.3.14-.55.25-.77.32-.2.07-.4.1-.53.1-.4-.08-.76-.2-1.08-.4-.33-.22-.6-.53-.88-1-.17-.3-.1-.65.03-1 .15-.35.4-.72.7-1.1.6-.7 1.37-1.42 1.84-1.82.26-.22.67-.45 1.15-.67.5-.23 1.05-.44 1.6-.63.56-.18 1.1-.34 1.57-.43.22-.05.43-.08.6-.1z" clip-rule="evenodd"/><path fill="#95D148" d="M62.38 18.32c.22-.2.6-.4 1.1-.63.46-.23 1.02-.44 1.56-.63.55-.18 1.1-.33 1.53-.4.22-.06.4-.08.57-.1.16 0 .26 0 .32.03h.02c.07.04.13.07.18.1.05 0 .08.03.1.04 0 .02 0 .02.02.04 0 0 0 .04 0 .1-.02.1-.05.23-.1.43-.02.05-.03.1-.04.14-.07.28-.16.65-.26 1.15-.1.46-.44.98-.95 1.52-.5.54-1.14 1.07-1.8 1.53-.65.46-1.3.86-1.86 1.13-.28.14-.52.24-.72.3-.2.08-.34.1-.4.08-.4-.06-.7-.16-1-.34-.26-.2-.52-.47-.78-.93-.1-.2-.1-.44.05-.76.13-.3.37-.66.66-1.02.57-.7 1.34-1.4 1.8-1.8z"/><path fill="#95D148" fill-rule="evenodd" d="M48.38 7.46c-.44.68-.77 1.26-.9 1.63-.12.3-.27.63-.43 1-.05.1-.1.23-.14.34-.2.5-.4 1-.57 1.5-.16.5-.26 1-.25 1.4 0 .4.1.7.36.93.57.48 1.03.74 1.46.85.43.12.84.1 1.32-.02.03 0 .08-.03.14-.08.07-.05.14-.12.22-.22.16-.2.34-.45.53-.78.4-.66.83-1.55 1.25-2.53.83-1.98 1.6-4.3 1.88-5.82.13-.77.2-1.33.22-1.76.02-.42 0-.68-.08-.85-.06-.15-.15-.2-.27-.25-.13-.04-.3-.05-.53-.06h-.02c-.03 0-.07 0-.14.04-.06.03-.14.08-.23.14-.18.13-.4.32-.64.56-.48.47-1.04 1.13-1.6 1.83-.56.7-1.1 1.46-1.55 2.13zm3.92-4.9c.08-.04.17-.07.26-.06 0 0 .03 0 .04 0 .2 0 .4 0 .58.06.2.06.35.18.44.4.1.23.12.54.1.98-.02.44-.1 1.02-.23 1.8-.28 1.54-1.07 3.88-1.9 5.85-.43.98-.86 1.88-1.26 2.55-.2.34-.38.62-.56.82-.08.1-.17.2-.25.26-.08.06-.16.1-.25.13-.5.12-.96.15-1.45.02-.48-.12-.98-.4-1.56-.9-.33-.3-.46-.7-.46-1.14 0-.45.1-.96.27-1.47.17-.5.38-1.04.6-1.53.04-.12.1-.24.14-.35.17-.37.3-.7.42-1 .15-.4.5-1 .94-1.68.45-.68 1-1.44 1.56-2.15.56-.7 1.13-1.38 1.62-1.86.25-.23.48-.43.68-.57.1-.07.2-.13.28-.17z" clip-rule="evenodd"/><path fill="#95D148" d="M47.47 9.1c.14-.38.47-.96.9-1.64.45-.67 1-1.42 1.56-2.13.56-.7 1.12-1.36 1.6-1.83.24-.24.46-.43.64-.56.1-.06.17-.1.24-.14.08-.03.12-.04.15-.04h.02c.23 0 .4.02.53.06.12.04.2.1.27.25.07.17.1.43.08.85-.02.43-.1 1-.22 1.76-.27 1.52-1.05 3.84-1.88 5.8-.42 1-.85 1.88-1.24 2.54-.18.33-.36.6-.52.78-.08.1-.15.17-.22.22-.06.05-.1.08-.14.08-.48.1-.9.14-1.32.02-.43-.1-.9-.37-1.46-.85-.25-.22-.36-.53-.36-.94 0-.4.1-.88.25-1.38.16-.5.37-1.02.58-1.5.06-.12.1-.24.15-.35.16-.37.3-.7.42-1z"/><path fill="#95D148" fill-rule="evenodd" d="M5.6 39.57c.7.33 1.3.56 1.66.64.3.07.65.16 1.02.26.1.03.22.06.33.1.5.12 1.03.25 1.52.33.5.07.96.1 1.35.04.38-.06.68-.2.85-.47.4-.6.6-1.07.67-1.48.06-.43 0-.8-.16-1.24 0-.02-.04-.07-.1-.12-.05-.05-.13-.1-.23-.17-.18-.12-.46-.25-.8-.4-.66-.26-1.56-.54-2.54-.8-1.97-.52-4.27-.93-5.75-.97-.74-.02-1.3 0-1.7.02-.4.04-.65.1-.8.2-.14.07-.2.16-.22.28-.03.13 0 .3 0 .5v.02c0 .02.02.06.06.12.03.06.08.13.15.2.14.15.34.33.6.52.5.4 1.18.83 1.9 1.26.74.42 1.52.83 2.2 1.15zm-5.1-3c-.04-.06-.07-.15-.08-.23 0 0 0-.03 0-.04-.02-.2-.04-.38 0-.55.03-.2.14-.35.35-.47.2-.1.5-.18.9-.22.43-.04 1-.05 1.74-.03 1.53.04 3.85.46 5.83.98 1 .27 1.9.56 2.58.83.35.14.64.28.86.4.1.08.2.15.27.22s.13.14.16.22c.15.46.23.88.16 1.36-.07.47-.3.97-.7 1.6-.25.33-.62.5-1.05.57-.42.07-.9.03-1.42-.05-.5-.08-1.04-.2-1.53-.34-.12-.02-.24-.05-.35-.08-.36-.1-.7-.2-1-.25-.4-.1-1-.33-1.7-.66-.7-.3-1.48-.72-2.22-1.15-.74-.43-1.44-.88-1.95-1.27-.26-.2-.48-.4-.63-.56-.08-.08-.14-.16-.2-.24z" clip-rule="evenodd"/><path fill="#95D148" d="M7.26 40.2c-.36-.07-.96-.3-1.65-.63-.68-.32-1.46-.73-2.2-1.15-.72-.43-1.4-.87-1.9-1.26-.26-.2-.46-.37-.6-.52-.08-.07-.13-.14-.16-.2-.04-.06-.05-.1-.05-.12l-.02-.02c0-.2-.03-.37 0-.5.02-.12.08-.2.22-.3.15-.07.4-.14.8-.18.4-.03.96-.04 1.7-.02 1.5.04 3.8.45 5.76.97.98.26 1.88.54 2.55.8.34.15.62.28.8.4.1.06.2.12.24.17.06.05.1.1.1.12.15.43.22.8.15 1.23-.07.4-.27.87-.68 1.47-.17.26-.47.4-.85.47-.4.06-.85.03-1.35-.05-.5-.1-1-.22-1.5-.35-.12-.03-.23-.06-.34-.1-.37-.1-.72-.18-1.02-.24z"/><path fill="#95D148" fill-rule="evenodd" d="M10.04 19.93c.48.65.9 1.16 1.17 1.4.22.2.46.46.72.72.08.08.16.17.24.25.36.35.73.72 1.08 1.02.36.3.7.54.97.64.15.05.26.06.35.05.1 0 .16-.05.23-.15.34-.46.5-.87.6-1.3.07-.42.04-.87-.04-1.4 0-.12-.1-.3-.23-.5-.13-.23-.32-.5-.55-.8-.47-.58-1.1-1.27-1.8-1.98C11.34 16.45 9.7 15 8.6 14.3c-.54-.35-.94-.58-1.24-.7-.3-.15-.47-.18-.56-.16-.03 0-.05.02-.07.05-.02 0-.04.06-.06.12-.04.14-.04.32-.04.55v.03c0 .08.04.25.14.5.1.22.23.5.4.82.34.64.8 1.4 1.32 2.2.5.78 1.04 1.56 1.52 2.2zm-3.5-5.14c-.08-.25-.15-.46-.15-.6 0-.02 0-.04 0-.05 0-.22 0-.42.03-.58.02-.1.05-.18.1-.25.06-.07.14-.12.24-.14.18-.04.42.02.72.16.3.15.72.38 1.27.74 1.1.7 2.76 2.17 4.17 3.6.7.7 1.34 1.42 1.82 2 .23.3.43.58.58.82.14.23.24.44.27.6.1.55.12 1.04.03 1.5-.08.47-.28.92-.63 1.4-.1.15-.24.24-.4.27-.16.03-.32 0-.48-.06-.33-.1-.7-.37-1.05-.68-.37-.3-.74-.68-1.1-1.03-.08-.1-.16-.18-.24-.26-.26-.27-.5-.5-.7-.7-.3-.27-.72-.8-1.2-1.45-.5-.67-1.03-1.46-1.54-2.24-.5-.78-1-1.57-1.33-2.2-.18-.34-.32-.63-.42-.87z" clip-rule="evenodd"/><path fill="#95D148" d="M11.2 21.34c-.26-.25-.68-.76-1.16-1.4-.48-.66-1.02-1.45-1.52-2.23-.5-.77-.98-1.54-1.32-2.18-.17-.32-.3-.6-.4-.83-.1-.25-.14-.42-.14-.5v-.03c0-.23 0-.4.03-.55 0-.06.03-.1.05-.13.02-.04.04-.05.07-.06.1-.02.26 0 .56.15.3.12.7.35 1.24.7 1.08.7 2.72 2.15 4.12 3.57.7.7 1.34 1.4 1.8 2 .24.28.43.55.57.77.15.22.23.4.24.5.08.54.1 1 .03 1.42-.08.42-.25.83-.6 1.3-.06.1-.13.13-.22.15-.1.02-.2 0-.34-.04-.27-.1-.6-.33-.96-.64-.35-.3-.72-.67-1.08-1.02-.08-.08-.16-.17-.24-.25-.26-.26-.5-.5-.7-.7z"/><path fill="#95D148" fill-rule="evenodd" d="M26.85 6.88c.1.75.2 1.36.33 1.7.1.27.2.6.3.95.03.1.06.22.1.33.14.47.3.96.48 1.4.18.44.38.82.62 1.08.23.26.47.4.75.36.23-.02.52-.1.75-.15.1-.03.2-.06.3-.08.02 0 .05-.02.07-.02.02 0 .02 0 .03-.02.03-.02.06-.04.1-.08.1-.06.22-.15.35-.26.26-.22.56-.5.7-.73.03-.03.05-.08.06-.16 0-.07 0-.17 0-.28 0-.24-.03-.54-.1-.9-.1-.68-.33-1.57-.62-2.5C30.5 5.63 29.7 3.56 29 2.37c-.34-.6-.6-1.03-.84-1.32-.23-.3-.4-.44-.53-.5-.06-.03-.1-.04-.16-.04-.04 0-.1.02-.14.05-.12.06-.23.18-.38.32h-.02c-.02.03-.04.07-.07.13-.03.07-.06.16-.08.26-.05.2-.08.48-.1.8-.05.64-.05 1.46-.02 2.3.03.86.1 1.73.2 2.48zm3.77 5.7c.04.1.04.1.04.1v.02h-.03c-.02 0-.05.02-.1.03-.06.02-.17.05-.28.08-.24.07-.54.14-.8.17-.4.04-.7-.15-.97-.45-.27-.3-.48-.7-.67-1.16-.17-.45-.33-.95-.48-1.42-.03-.12-.06-.23-.1-.33-.1-.34-.2-.66-.3-.93-.12-.37-.24-1-.33-1.76-.1-.75-.17-1.63-.2-2.48-.04-.85-.04-1.7 0-2.34.03-.33.07-.62.12-.85.03-.1.05-.2.1-.3.02-.08.07-.16.13-.2 0-.02 0-.03.02-.04.14-.15.28-.28.42-.36.07-.05.16-.08.25-.1.1 0 .2.03.3.07.18.1.4.3.62.6.24.3.52.74.87 1.34.7 1.22 1.53 3.3 2.1 5.2.3.94.5 1.84.64 2.55.06.35.1.66.1.9 0 .14 0 .26-.02.35-.02.1-.05.2-.1.26-.17.3-.5.58-.76.8-.14.1-.26.2-.36.27-.04.03-.08.06-.1.08-.02 0-.03 0-.03.02 0 0 0 0-.08-.1zm0 0l.07.1h-.04l-.04-.1z" clip-rule="evenodd"/><path fill="#95D148" d="M27.18 8.58c-.12-.34-.24-.95-.33-1.7-.1-.75-.16-1.62-.2-2.47-.02-.84-.02-1.66.02-2.3.03-.32.06-.6.1-.8.03-.1.06-.2.1-.27.02-.06.04-.1.06-.12h.02c.15-.15.26-.27.38-.33.05-.03.1-.05.14-.05.05 0 .1 0 .16.03.13.07.3.2.53.5.23.3.5.73.85 1.33.7 1.2 1.5 3.26 2.08 5.13.3.95.5 1.84.63 2.53.07.35.1.65.1.9 0 .1 0 .2 0 .28-.02.1-.04.14-.06.17-.15.24-.45.5-.7.72-.14.1-.26.2-.35.25-.06.04-.1.06-.12.08 0 0 0 0-.02 0v.02c-.03 0-.06 0-.1.02-.07.02-.17.05-.28.08-.23.06-.52.13-.75.15-.28.03-.52-.1-.75-.36-.24-.26-.44-.64-.62-1.08-.18-.44-.34-.93-.48-1.4-.04-.1-.07-.22-.1-.33-.1-.35-.2-.68-.3-.95zM27.8 64.2c1.7.42 4.55-.8 6.03-2.95 1.67-2.45 1.2-3.85 0-7.57v-.05c-1.2-3.75-7.8-9.17-6.68-15.77.8-4.76 2.37-8.23 6.68-10.42 2.6-1.32 4.44-1.35 7.35-1.2 2.86.14 4.52.6 7.08 1.87 3.38 1.68 6.15 5.62 7.22 6.42 1.07.8 4 1.07 4.54-.4.56-1.47-2.26-4.8-4.54-7.22-2.37-2.5-4.07-3.67-7.22-5.07-3.18-1.43-5.2-1.92-8.7-2-3.93-.1-6.32.3-9.88 2-2.95 1.4-4.7 2.45-6.68 5.07-1.64 2.2-2.37 3.72-2.8 6.42-.42 2.58-.1 4.14.53 6.68.56 2.3 1.3 3.46 2.27 5.6 1 2.2 2 3.23 2.8 5.5.9 2.5.95 4.04 1.35 6.68.37 2.5-1.03 5.98.66 6.4z"/></svg>