<svg width="43" height="47" viewBox="0 0 43 47" fill="none" xmlns="http://www.w3.org/2000/svg">
<g clip-path="url(#clip0)">
<path d="M40.6416 4.99946L37.1378 1.16976C35.7127 -0.388351 33.4018 -0.388651 31.9762 1.16906C31.976 1.16926 31.9758 1.16956 31.9756 1.16976L25.8863 7.82546C24.4608 9.38317 24.4606 11.9091 25.8856 13.4672C25.8859 13.4675 25.8861 13.4677 25.8863 13.468L26.3061 13.9267C28.0055 15.7929 28.2693 18.7084 26.9375 20.9024C24.8948 24.244 22.1351 26.9886 18.8992 28.8969L18.2926 29.2543C16.3282 30.4236 13.8933 30.0333 12.3187 28.2969C10.8936 26.7388 8.58273 26.7385 7.15714 28.2961C7.15686 28.2964 7.15668 28.2966 7.1565 28.2969L1.06724 34.9517C-0.356073 36.5108 -0.356073 39.035 1.06724 40.5941L4.57174 44.4246C6.06924 46.072 8.10571 46.9992 10.2303 47.0009C11.0988 46.9995 11.9614 46.8454 12.7852 46.5445C26.8334 41.387 37.8607 29.3354 42.5811 13.9809C43.5536 10.8278 42.8015 7.34445 40.6416 4.99946ZM26.9177 8.95283L33.007 2.29713C33.7121 1.53188 34.8003 1.38159 35.6575 1.93091L26.5827 11.8498C26.0801 10.913 26.2176 9.72355 26.9177 8.95283ZM2.09939 36.0799V36.0839L8.18865 29.4282C8.89059 28.6557 9.98342 28.5047 10.8391 29.0619L1.76435 38.9769C1.26177 38.04 1.39928 36.8506 2.09939 36.0799ZM41.1963 13.4759C36.6238 28.355 25.9393 40.0344 12.3267 45.0334C9.96645 45.9019 7.3597 45.2294 5.60389 43.2989L2.74029 40.1665L11.9742 30.0736C14.0014 31.7614 16.7465 31.9904 18.9846 30.6584L19.5912 30.3018C23.0376 28.2694 25.9765 25.3458 28.1514 21.7863C29.8007 19.0659 29.5528 15.4694 27.5492 13.0498L36.7458 2.99764L39.6094 6.12762C41.3765 8.04626 41.992 10.8961 41.1963 13.4759Z" fill="black"/>
<path d="M4.62817 18.6236H6.08808C6.09492 12.017 10.9931 6.66325 17.0373 6.65577V5.06006C10.1871 5.06844 4.63575 11.1361 4.62817 18.6236Z" fill="black"/>
<path d="M8.13196 18.6235H9.59186C9.59624 14.131 12.9272 10.4901 17.0374 10.4854V8.88965C12.1213 8.89583 8.13752 13.2502 8.13196 18.6235Z" fill="black"/>
<path d="M11.6357 18.6234H13.0956C13.098 16.245 14.8613 14.3175 17.0373 14.3149V12.7192C14.0556 12.7232 11.6392 15.3642 11.6357 18.6234Z" fill="black"/>
</g>
<defs>
<clipPath id="clip0">
<rect width="43" height="47" fill="white"/>
</clipPath>
</defs>
</svg>
