<svg xmlns="http://www.w3.org/2000/svg" width="88" height="88" fill="none"><path fill="#95D148" d="M86.5 20.37c1.36-1.3 1.84-3.25 1.25-5.05-.58-1.8-2.1-3.08-3.97-3.35l-7.55-1.1c-.76-.1-1.43-.6-1.77-1.3L71.1 2.76C70.24 1.05 68.55 0 66.66 0c-1.9 0-3.6 1.05-4.42 2.75l-3.38 6.83c-.34.7-1 1.18-1.77 1.3l-7.54 1.1c-1.87.26-3.4 1.54-3.98 3.34-.58 1.8-.1 3.74 1.25 5.05l5.46 5.33c.54.54.8 1.3.66 2.08l-1.3 7.5c-.3 1.87.45 3.72 1.97 4.83.87.64 1.88.96 2.9.96.78 0 1.57-.2 2.3-.57l6.74-3.56c.7-.36 1.5-.36 2.2 0l6.74 3.55c1.68.87 3.67.72 5.2-.4 1.53-1.1 2.28-2.95 1.96-4.8l-.24-1.45c-.13-.7-.8-1.17-1.5-1.05-.7.12-1.17.8-1.05 1.5l.25 1.43c.15.9-.2 1.76-.94 2.3-.74.53-1.66.6-2.47.17l-6.74-3.55c-1.43-.75-3.15-.75-4.6 0l-6.73 3.55c-.8.43-1.74.36-2.48-.18-.74-.53-1.1-1.4-.93-2.3l1.3-7.5c.26-1.6-.27-3.24-1.43-4.37l-5.47-5.32c-.66-.64-.88-1.54-.6-2.4.3-.88 1-1.48 1.9-1.6l7.54-1.1c1.6-.24 3-1.25 3.72-2.7l3.36-6.84c.4-.83 1.2-1.32 2.1-1.32.92 0 1.7.5 2.1 1.3l3.4 6.85c.7 1.45 2.1 2.46 3.7 2.7l7.54 1.1c.9.12 1.62.72 1.9 1.6.28.86.06 1.76-.6 2.4l-5.45 5.32c-1.17 1.13-1.7 2.76-1.42 4.36l.04.26c.12.7.8 1.18 1.5 1.06.7-.13 1.17-.8 1.05-1.5l-.05-.24c-.13-.77.12-1.54.68-2.08l5.46-5.33zM70.9 55.7c.92-1.06 1.48-2.44 1.48-3.94 0-3.34-2.72-6.06-6.05-6.06l-19.64-.02s-.23-.64-.37-.93c-.3-.64-.4-1.34-.32-2.02.3-2.2.37-4.5.43-6.33.14-4.7-.8-8.15-2.88-10.52-2.1-2.38-5.1-3.74-8.27-3.74-.02 0-.05 0-.07 0-1.77 0-3.2 1.48-3.2 3.27v5.75c0 3.64-.6 8.72-3.42 12.18-2.98 3.67-5.56 3.64-9.82 3.6-.15 0-.3 0-.45 0v-1.56c0-2.57-2.07-4.66-4.64-4.66h-9C2.1 40.7 0 42.8 0 45.38v12.95c0 .7.58 1.3 1.3 1.3.7 0 1.28-.6 1.28-1.3V45.37c0-1.15.93-2.08 2.08-2.08h9c1.14 0 2.07.92 2.07 2.07v37.68c0 1.15-.93 2.08-2.07 2.08h-9c-1.15 0-2.08-.93-2.08-2.08V64.2c0-.7-.58-1.28-1.3-1.28-.7 0-1.28.58-1.28 1.3v18.83c0 2.57 2.1 4.66 4.66 4.66h9c2.57 0 4.65-2.08 4.65-4.65V81.1h1.76c.84 0 1.68.3 2.35.83.18.14.4.3.62.5 1.62 1.4 4.62 3.96 8.92 3.96H63.6c3.34 0 6.06-2.73 6.06-6.07 0-1.44-.5-2.76-1.35-3.8 2.37-.83 4.08-3.08 4.08-5.72 0-1.5-.56-2.88-1.47-3.94 2.2-.92 3.72-3.07 3.72-5.58 0-2.5-1.53-4.66-3.7-5.58zm-15.6-7.42h11.03c1.9 0 3.47 1.56 3.47 3.48 0 1.9-1.56 3.47-3.47 3.47H55.3c-1.9 0-3.46-1.56-3.46-3.47 0-1.92 1.56-3.48 3.47-3.48zM47.65 83.8h-15.7c-3.35 0-5.7-2-7.24-3.32-.24-.2-.47-.4-.68-.57-1.13-.88-2.54-1.38-3.96-1.38H18.3V49.5c.15 0 .3 0 .43 0 4.52.06 8.1.1 11.86-4.54 1.8-2.24 3.97-6.45 3.97-13.8V25.4c0-.37.3-.68.66-.68.02 0 .03 0 .05 0 2.4 0 4.75 1.06 6.33 2.86 1.64 1.85 2.37 4.7 2.25 8.74-.06 1.78-.13 4-.4 6.08-.15 1.16.04 2.35.54 3.44 0 0 0 0 0 .02 0 0 0 0 0 .03.02 0 .02 0 .02 0 .4.96.72 2 .77 3.07.05 1.32-.2 2.65-.8 3.96 0 .03-1.23 2.72-4.6 4.2-.65.3-.94 1.06-.65 1.72 1 2.25 4.7-1.14 5.62-2.1.78-.8 1.53-1.73 2-2.77.74-1.67 1.08-3.4 1-5.12 0-.2-.03-.4-.05-.6h3.06c-.7 1-1.12 2.2-1.12 3.5 0 2.5 1.53 4.66 3.7 5.58-.9 1.06-1.46 2.44-1.46 3.94s.55 2.9 1.47 3.95c-2.18.92-3.7 3.07-3.7 5.58 0 1.45.5 2.77 1.34 3.82-2.35.82-4.06 3.07-4.06 5.7 0 1.3.4 2.5 1.1 3.5zm15.97 0h-11c-1.92 0-3.48-1.55-3.48-3.47 0-1.9 1.56-3.47 3.47-3.47h11c1.92 0 3.48 1.56 3.48 3.47 0 1.92-1.56 3.48-3.47 3.48zm2.73-9.52H55.3c-1.9 0-3.46-1.56-3.46-3.47 0-1.9 1.56-3.46 3.47-3.46h11.03c1.9 0 3.47 1.55 3.47 3.47 0 1.92-1.56 3.48-3.47 3.48zm2.23-9.52h-11c-1.92 0-3.48-1.56-3.48-3.48 0-1.9 1.56-3.47 3.47-3.47h11c1.93 0 3.5 1.57 3.5 3.48 0 1.92-1.57 3.48-3.5 3.48z"/></svg>