<svg xmlns="http://www.w3.org/2000/svg" width="79" height="77" fill="none"><path fill="#000" d="M20.98 76.4c-.68 0-1.23-.54-1.23-1.2a8.54 8.54 0 018.64-8.43c.68 0 1.23.54 1.23 1.2 0 .67-.55 1.21-1.23 1.21a6.1 6.1 0 00-6.17 6.02c0 .66-.55 1.2-1.24 1.2z"/><path fill="#000" d="M33.33 69.18h-4.94c-.68 0-1.23-.54-1.23-1.2 0-.67.55-1.2 1.23-1.2h4.94c.68 0 1.23.54 1.23 1.2 0 .66-.55 1.2-1.23 1.2zM58.02 76.4c-.69 0-1.24-.54-1.24-1.2a6.1 6.1 0 00-6.17-6.02c-.68 0-1.23-.54-1.23-1.2 0-.67.55-1.2 1.23-1.2a8.54 8.54 0 018.64 8.42c0 .66-.55 1.2-1.23 1.2z"/><path fill="#000" d="M45.67 69.18c-.68 0-1.23-.54-1.23-1.2 0-.66.55-1.2 1.23-1.2h4.94c.68 0 1.23.53 1.23 1.2 0 .66-.55 1.2-1.23 1.2h-4.94zM33.33 69.18c-.68 0-1.24-.54-1.24-1.2v-3.85c0-.67.56-1.2 1.24-1.2.68 0 1.23.53 1.23 1.2v3.85c0 .66-.55 1.2-1.23 1.2z"/><path fill="#000" d="M45.67 69.18c-.68 0-1.23-.54-1.23-1.2v-3.85c0-.67.55-1.2 1.23-1.2.68 0 1.24.53 1.24 1.2v3.85c0 .66-.56 1.2-1.24 1.2z"/><path fill="#000" d="M39.5 66.77c-8.17 0-14.81-6.47-14.81-14.43 0-.67.55-1.2 1.23-1.2.68 0 1.24.53 1.24 1.2 0 6.63 5.53 12.03 12.34 12.03 6.8 0 12.34-5.4 12.34-12.03 0-.67.56-1.2 1.24-1.2.68 0 1.23.53 1.23 1.2 0 7.96-6.64 14.43-14.81 14.43zM53.08 46.32c-.68 0-1.24-.54-1.24-1.2 0-6.64-5.53-12.03-12.34-12.03-6.8 0-12.34 5.4-12.34 12.03 0 .66-.56 1.2-1.24 1.2-.68 0-1.23-.54-1.23-1.2 0-7.96 6.64-14.44 14.81-14.44 8.17 0 14.81 6.48 14.81 14.44 0 .66-.55 1.2-1.23 1.2z"/><path fill="#000" d="M25.92 53.54c-.68 0-1.23-.54-1.23-1.2v-7.22c0-.67.55-1.2 1.23-1.2.68 0 1.24.53 1.24 1.2v7.22c0 .66-.56 1.2-1.24 1.2zM53.08 53.54c-.68 0-1.24-.54-1.24-1.2v-7.22c0-.67.56-1.2 1.24-1.2.68 0 1.23.53 1.23 1.2v7.22c0 .66-.55 1.2-1.23 1.2z"/><path fill="#000" d="M53.08 48.73c-.32 0-.63-.12-.87-.36l-3.7-3.6a1.18 1.18 0 010-1.7 1.26 1.26 0 011.74 0l3.7 3.6c.48.47.48 1.23 0 1.7-.24.24-.56.36-.87.36z"/><path fill="#000" d="M39.5 47.52a25 25 0 01-10.46-2.55 1.19 1.19 0 01-.5-1.63c.32-.58 1.06-.8 1.67-.49.04.03 4.4 2.27 9.29 2.27a22.6 22.6 0 009.29-2.27c.6-.31 1.35-.1 1.67.5.32.58.1 1.3-.5 1.62-.2.1-4.92 2.55-10.46 2.55z"/><path fill="#000" d="M25.92 48.73c-.31 0-.63-.12-.87-.36a1.18 1.18 0 010-1.7l3.7-3.6a1.26 1.26 0 011.75 0c.48.46.48 1.22 0 1.7l-3.7 3.6c-.25.24-.56.36-.88.36zM35.8 71.59c-.32 0-.64-.12-.88-.36l-2.46-2.4a1.18 1.18 0 010-1.7 1.26 1.26 0 011.74 0l2.47 2.4c.48.47.48 1.23 0 1.7-.24.24-.56.36-.87.36z"/><path fill="#000" d="M35.8 71.59c-.52 0-1-.32-1.17-.83a1.2 1.2 0 01.78-1.52l3.7-1.2c.65-.21 1.35.13 1.56.76a1.2 1.2 0 01-.78 1.52l-3.7 1.2c-.13.05-.26.07-.4.07zM43.2 71.59c-.31 0-.63-.12-.87-.36a1.18 1.18 0 010-1.7l2.47-2.4a1.26 1.26 0 011.74 0c.49.47.49 1.23 0 1.7l-2.46 2.4c-.24.24-.56.36-.88.36z"/><path fill="#000" d="M43.2 71.59c-.12 0-.26-.03-.39-.07l-3.7-1.2c-.64-.21-1-.89-.78-1.52.22-.63.9-.97 1.56-.76l3.7 1.2a1.2 1.2 0 01-.39 2.35zM39.5 27.07c-7.49 0-13.58-5.94-13.58-13.23C25.92 6.54 32.02.6 39.5.6c7.49 0 13.58 5.94 13.58 13.24s-6.1 13.23-13.58 13.23zm0-24.06c-6.13 0-11.1 4.85-11.1 10.83 0 5.97 4.97 10.82 11.1 10.82s11.1-4.85 11.1-10.82C50.6 7.86 45.64 3 39.5 3zM13.58 41.5C6.09 41.5 0 35.58 0 28.28c0-7.3 6.1-13.23 13.58-13.23 3.62 0 7.03 1.38 9.6 3.88a12.98 12.98 0 010 18.71 13.67 13.67 0 01-9.6 3.88zm0-24.05c-6.13 0-11.11 4.85-11.11 10.82 0 5.97 4.98 10.83 11.1 10.83 2.97 0 5.77-1.13 7.86-3.17a10.62 10.62 0 000-15.31 11.19 11.19 0 00-7.85-3.17zM65.42 41.51c-7.49 0-13.58-5.94-13.58-13.23 0-7.3 6.1-13.24 13.58-13.24 7.49 0 13.58 5.94 13.58 13.24S72.9 41.5 65.42 41.5zm0-24.06c-6.12 0-11.1 4.85-11.1 10.83 0 5.97 4.97 10.83 11.1 10.83s11.11-4.86 11.11-10.83-4.98-10.83-11.11-10.83z"/><path fill="#000" d="M19.75 35.5H7.41c-.69 0-1.24-.55-1.24-1.21v-8.42c0-.67.55-1.2 1.24-1.2h12.34c.68 0 1.23.53 1.23 1.2v8.42c0 .66-.55 1.2-1.23 1.2zm-11.1-2.41h9.87v-6.02H8.64v6.02z"/><path fill="#000" d="M19.75 27.07H7.41c-.69 0-1.24-.54-1.24-1.2v-3.61c0-.67.55-1.2 1.24-1.2h12.34c.68 0 1.23.53 1.23 1.2v3.6c0 .67-.55 1.21-1.23 1.21zm-11.1-2.4h9.87v-1.2H8.64v1.2zM35.8 21.05a3.66 3.66 0 01-3.7-3.6c0-2 1.66-3.61 3.7-3.61.68 0 1.23.53 1.23 1.2 0 .66-.55 1.2-1.23 1.2-.68 0-1.24.54-1.24 1.2 0 .67.56 1.2 1.24 1.2.68 0 1.23.55 1.23 1.21 0 .67-.55 1.2-1.23 1.2z"/><path fill="#000" d="M44.44 21.05H35.8c-.69 0-1.24-.53-1.24-1.2 0-.66.55-1.2 1.24-1.2h8.64c.68 0 1.23.54 1.23 1.2 0 .67-.55 1.2-1.23 1.2zM44.44 16.24H35.8c-.69 0-1.24-.54-1.24-1.2 0-.67.55-1.2 1.24-1.2h8.64c.68 0 1.23.53 1.23 1.2 0 .66-.55 1.2-1.23 1.2z"/><path fill="#000" d="M43.2 21.05c-.68 0-1.23-.53-1.23-1.2v-4.81c0-.67.55-1.2 1.23-1.2.69 0 1.24.53 1.24 1.2v4.81c0 .67-.55 1.2-1.24 1.2zM33.33 11.43c-.68 0-1.24-.54-1.24-1.2 0-2 1.67-3.61 3.7-3.61.69 0 1.24.53 1.24 1.2 0 .67-.55 1.2-1.23 1.2-.68 0-1.24.54-1.24 1.2 0 .67-.55 1.21-1.23 1.21z"/><path fill="#000" d="M44.44 9.02H35.8c-.69 0-1.24-.53-1.24-1.2 0-.67.55-1.2 1.24-1.2h8.64c.68 0 1.23.53 1.23 1.2 0 .67-.55 1.2-1.23 1.2z"/><path fill="#000" d="M44.44 16.24c-.69 0-1.24-.54-1.24-1.2V7.82c0-.67.55-1.2 1.24-1.2.68 0 1.23.53 1.23 1.2v7.22c0 .66-.55 1.2-1.23 1.2zM33.33 18.65c-.68 0-1.24-.54-1.24-1.2v-7.22c0-.67.56-1.2 1.24-1.2.68 0 1.23.53 1.23 1.2v7.22c0 .66-.55 1.2-1.23 1.2zM70.36 34.29h-9.88a2.44 2.44 0 01-2.46-2.4v-6.02c0-1.33 1.1-2.4 2.46-2.4h9.88a2.44 2.44 0 012.47 2.4v6.01c0 1.33-1.1 2.4-2.47 2.4zm0-2.4v1.2-1.2zm-9.88-6.02v6.01h9.88v-6.01h-9.88z"/><path fill="#000" d="M62.95 25.87c-.68 0-1.23-.54-1.23-1.2v-3.62c0-.66.55-1.2 1.23-1.2.69 0 1.24.54 1.24 1.2v3.61c0 .67-.55 1.2-1.24 1.2z"/><path fill="#000" d="M67.9 22.26h-4.95c-.68 0-1.23-.54-1.23-1.2 0-.67.55-1.2 1.23-1.2h4.94c.68 0 1.23.53 1.23 1.2 0 .66-.55 1.2-1.23 1.2z"/><path fill="#000" d="M67.9 25.87c-.7 0-1.24-.54-1.24-1.2v-3.62c0-.66.55-1.2 1.23-1.2.68 0 1.23.54 1.23 1.2v3.61c0 .67-.55 1.2-1.23 1.2z"/></svg>