<svg xmlns="http://www.w3.org/2000/svg" width="32" height="32" fill="none"><path fill="#fff" d="M31.13 19.2c.22-1.05.34-2.13.34-3.2 0-4.13-1.6-8.02-4.53-10.94C24.02 2.14 20.14.53 16 .53c-1.07 0-2.15.12-3.2.34C11.6.3 10.27 0 8.94 0 4 0 0 4 0 8.95c0 1.33.3 2.65.87 3.84C.65 13.84.53 14.92.53 16c0 4.13 1.6 8.02 4.53 10.94 2.92 2.92 6.8 4.53 10.94 4.53 1.07 0 2.15-.12 3.2-.34 1.2.57 2.52.87 3.85.87C28 32 32 28 32 23.05c0-1.32-.3-2.65-.87-3.84zm-8.08 10.93c-1.16 0-2.26-.28-3.3-.82-.12-.06-.27-.1-.42-.1-.07 0-.15 0-.22.03-1 .24-2.06.36-3.1.36-7.5 0-13.6-6.1-13.6-13.6 0-1.04.13-2.1.37-3.1.05-.23.02-.46-.08-.66-.55-1.03-.83-2.13-.83-3.3 0-3.9 3.18-7.06 7.08-7.06 1.16 0 2.26.27 3.3.8.2.1.42.14.64.1 1-.25 2.06-.37 3.1-.37 7.5 0 13.6 6.1 13.6 13.6 0 1.04-.13 2.1-.37 3.1-.05.23-.02.46.08.66.55 1.03.82 2.13.82 3.3 0 3.9-3.17 7.07-7.07 7.07zM16 8.85c2.77 0 5.12 1.43 5.12 3.1 0 .52.42.94.94.94s.94-.43.94-.94c0-1.4-.78-2.68-2.2-3.62C19.5 7.48 17.8 7 16 7c-1.8 0-3.5.48-4.8 1.34-1.42.94-2.2 2.23-2.2 3.62 0 1.4.78 2.68 2.2 3.62 1.3.87 3 1.35 4.8 1.35 2.77 0 5.12 1.42 5.12 3.1 0 1.7-2.35 3.12-5.12 3.12s-5.12-1.43-5.12-3.1c0-.52-.42-.94-.94-.94s-.94.43-.94.94c0 1.4.78 2.68 2.2 3.62 1.3.86 3 1.34 4.8 1.34 1.8 0 3.5-.48 4.8-1.34 1.42-.94 2.2-2.23 2.2-3.62 0-1.4-.78-2.68-2.2-3.62-1.3-.87-3-1.34-4.8-1.34-2.77 0-5.12-1.43-5.12-3.12 0-1.68 2.35-3.1 5.12-3.1z"/></svg>