<svg xmlns="http://www.w3.org/2000/svg" width="40" height="40" fill="none"><g clip-path="url(#clip0)"><path fill="#000" d="M8.9 4.72v30.56a3.15 3.15 0 003.15 3.15h15.9a3.15 3.15 0 003.15-3.15V4.72c0-1.72-1.4-3.13-3.12-3.15a.8.8 0 01-.78-.79.8.8 0 01.79-.78c2.59 0 4.69 2.1 4.69 4.7v30.58c0 2.6-2.12 4.72-4.73 4.72h-15.9a4.72 4.72 0 01-4.73-4.72V4.72C7.32 2.12 9.44 0 12.05 0h8.82a.8.8 0 01.82.73.79.79 0 01-.79.84h-8.85A3.15 3.15 0 008.9 4.72zm15.54-3.15a.79.79 0 110-1.57.79.79 0 010 1.57zm4.3 29.93H11.26a.79.79 0 01-.79-.8V7.1c0-.44.35-.8.79-.8h17.48c.44 0 .79.36.79.8V30.7c0 .43-.36.79-.79.79zm-16.7-1.58h15.91V7.87h-15.9v22.05zM22.69 3.94a.79.79 0 00-.79-.79h-3.78a.79.79 0 000 1.57h3.78c.43 0 .79-.35.79-.78zM20.56 37.4c-.31.31-.8.31-1.12 0l-1.89-1.88c-.3-.31-.3-.8 0-1.12l1.9-1.89c.3-.3.8-.3 1.1 0l1.9 1.9c.3.3.3.8 0 1.1l-1.9 1.9zm-1.34-2.44l.78.78.78-.78-.78-.78-.78.78z"/></g><defs><clipPath id="clip0"><path fill="#fff" d="M0 0h40v40H0z"/></clipPath></defs></svg>