<svg xmlns="http://www.w3.org/2000/svg" width="79" height="77" fill="none"><path fill="#000" d="M69.7 35.68c-2.69-1.3-7.73-1.32-7.94-1.32-.64 0-1.16.5-1.16 1.12 0 .63.52 1.13 1.16 1.13 1.3 0 5.07.2 6.9 1.09a1.17 1.17 0 001.56-.5c.28-.56.05-1.24-.52-1.52z"/><path fill="#000" d="M75.47 51.74l-4.78-1.33a.47.47 0 01-.35-.45V48.4a8.2 8.2 0 003.71-6.89v-2.14l.46-.9c.51-1 .78-2.1.78-3.2v-5.82c0-.62-.52-1.12-1.16-1.12H63a7.26 7.26 0 00-7.34 7.15v.07c0 .92.22 1.84.65 2.66l.59 1.16v1.84a8.73 8.73 0 003.71 7.12v1.63c0 .25 0 .35-.95.62l-2.34.65-6.74-2.4c.02-.3-.09-.62-.32-.86l-2.15-2.2v-3.71a13.08 13.08 0 004.95-10.2v-2.95a12.76 12.76 0 001.23-5.49V11.36c0-.62-.52-1.12-1.15-1.12H35.8c-6.1 0-11.05 4.83-11.05 10.77v2.41c0 1.9.41 3.75 1.23 5.49v2.54c0 4.22 1.93 8.02 4.95 10.52v3.8l-2.15 2.2a1.1 1.1 0 00-.32.87l-7.12 2.52c-.51.18-1 .43-1.43.73l-1.12-.54c3.33-1.42 4.39-3.4 4.44-3.5.16-.32.16-.7 0-1.01-.84-1.63-.94-4.6-1.02-7-.03-.8-.05-1.55-.1-2.22-.4-5.41-4.62-9.5-9.82-9.5s-9.42 4.09-9.81 9.5a59.5 59.5 0 00-.1 2.22c-.09 2.4-.19 5.37-1.02 7-.16.32-.16.7 0 1 .05.1 1.1 2.09 4.44 3.5l-3.1 1.52A4.71 4.71 0 000 57.3v8.33c0 .63.52 1.13 1.16 1.13.64 0 1.15-.5 1.15-1.13V57.3c0-.95.55-1.8 1.42-2.23l3.86-1.88 1.35 1.25a4.92 4.92 0 006.7 0L17 53.19l1.26.61c-.59.93-.93 2.02-.93 3.15v8.68c0 .63.52 1.13 1.16 1.13.64 0 1.16-.5 1.16-1.13v-8.68c0-1.55 1-2.94 2.5-3.47l7.5-2.66 3.13 4.57a2.4 2.4 0 001.99 1.04c.63 0 1.24-.24 1.7-.69l1.9-1.85v11.74c0 .63.52 1.13 1.15 1.13.64 0 1.16-.5 1.16-1.13V53.9l1.9 1.85a2.42 2.42 0 001.94.68 2.4 2.4 0 001.75-1.03l3.13-4.57 7.5 2.66c1.5.53 2.5 1.93 2.5 3.47v8.68c0 .63.52 1.13 1.16 1.13.64 0 1.16-.5 1.16-1.13v-8.68c0-1.56-.64-3.04-1.72-4.12l.3-.08c.28-.08.67-.2 1.07-.38l2.95 2.88v10.38c0 .63.52 1.13 1.16 1.13.64 0 1.16-.5 1.16-1.13V55.25l2.93-2.86c.16.08.32.14.5.19l4.77 1.33c1.1.3 1.86 1.29 1.86 2.4v9.32c0 .63.51 1.13 1.15 1.13.64 0 1.16-.5 1.16-1.13V56.3c0-2.1-1.45-3.98-3.53-4.56zm-68.05-2a8.33 8.33 0 01-3.71-2.32c.32-.8.52-1.72.66-2.7a8.46 8.46 0 003.05 3.68v1.35zm6.63 3.06a2.6 2.6 0 01-3.52 0l-1.07-1c.18-.33.28-.7.28-1.1v-1.2a8.76 8.76 0 005.1 0v1.2c0 .4.1.77.29 1.1l-1.08 1zm-1.76-5.18a6.2 6.2 0 01-6.26-6.1 1.14 1.14 0 00-1.35-1.12c0-.1 0-.2.01-.29.03-.77.05-1.5.1-2.13.14-2.03.97-3.9 2.34-5.26a7.24 7.24 0 015.16-2.14c1.96 0 3.8.76 5.17 2.14a8.27 8.27 0 012.34 5.26c.05.62.07 1.36.1 2.13 0 .07 0 .14 0 .2a10.38 10.38 0 00-5.71-4.07 14.87 14.87 0 00-4.4-.68c-.3.01-.6.13-.8.35L6.89 38a1.1 1.1 0 00.04 1.6c.46.44 1.19.42 1.63-.03l1.74-1.75c1.5.07 6.31.61 8.18 4.63a6.2 6.2 0 01-6.19 5.16zm4.87 2.13v-1.34a8.39 8.39 0 003.06-3.68c.14.97.34 1.9.66 2.7a8.37 8.37 0 01-3.72 2.32zm11.14-18.3v-2.8c0-.17-.04-.33-.12-.49a10.6 10.6 0 01-1.12-4.74v-2.4c0-4.7 3.92-8.53 8.74-8.53h16.17v10.93c0 1.65-.38 3.24-1.12 4.74a1.1 1.1 0 00-.12.5v3.2a10.7 10.7 0 01-4.44 8.72s0 0-.02.01a11.29 11.29 0 01-17.98-9.14zm6.51 22.7s-.02.02-.06.02a.07.07 0 01-.06-.03l-3.6-5.27 1.16-1.18 5.46 3.64-2.9 2.82zm4.7-4.35l-6.26-4.18v-2.1a13.28 13.28 0 006.28 1.53c2.2 0 4.34-.51 6.25-1.49v2.06l-6.27 4.18zm4.83 4.34s-.02.03-.06.03c-.04 0-.06-.01-.06-.02l-2.9-2.82 5.46-3.64 1.16 1.18-3.6 5.27zm21.13-.95l-2.63-2.56c.05-.2.07-.43.07-.67v-.48a8.3 8.3 0 002.56.4 8.8 8.8 0 002.55-.38v.46c0 .22.03.44.09.65l-2.64 2.58zm4.36-7.3a6.3 6.3 0 01-4.55 1.73 6.38 6.38 0 01-6.08-6.4V39.1c0-.17-.04-.35-.12-.5l-.71-1.4a3.64 3.64 0 01-.4-1.65v-.07c0-2.7 2.25-4.9 5.02-4.9h9.98v4.69c0 .75-.18 1.51-.53 2.19l-.58 1.14a1.1 1.1 0 00-.12.5v2.41c0 1.67-.68 3.23-1.9 4.39z"/><path fill="#000" d="M72.9 57.27c-.65 0-1.17.5-1.17 1.13v7.23c0 .63.52 1.13 1.16 1.13.64 0 1.16-.5 1.16-1.13V58.4c0-.62-.52-1.13-1.16-1.13zM6.1 58.76c-.63 0-1.15.5-1.15 1.13v5.74c0 .63.52 1.13 1.16 1.13.64 0 1.15-.5 1.15-1.13V59.9c0-.62-.51-1.13-1.15-1.13zM49 23.83c-4.38-4.26-13.54-3.45-17.27-2.9a2.33 2.33 0 00-2.03 2.3v2.6c0 .63.51 1.13 1.15 1.13.64 0 1.16-.5 1.16-1.12v-2.6c0-.04.03-.07.06-.08a37.5 37.5 0 017.52-.36c3.6.24 6.22 1.12 7.77 2.63.45.44 1.18.44 1.64 0a1.1 1.1 0 000-1.6zM25.9 59.68c-.64 0-1.15.5-1.15 1.13v4.82c0 .63.51 1.13 1.15 1.13.64 0 1.16-.5 1.16-1.13v-4.82c0-.62-.52-1.13-1.16-1.13zM53.12 59.68c-.63 0-1.15.5-1.15 1.13v4.82c0 .63.52 1.13 1.15 1.13.64 0 1.16-.5 1.16-1.13v-4.82c0-.62-.52-1.13-1.16-1.13z"/></svg>