<svg xmlns="http://www.w3.org/2000/svg" width="40" height="40" fill="none"><g fill="#000" clip-path="url(#clip0)"><path d="M18.16 30.5a.78.78 0 101.1 1.1.78.78 0 00-1.1-1.1z"/><path d="M38.2 29.14l-5.93-5.05a3.88 3.88 0 00-4.95.47L24.1 27.8a.78.78 0 01-.85.17 21.2 21.2 0 01-8.92-6.76 15.73 15.73 0 01-2.48-4.49.78.78 0 01.17-.85l3.23-3.23a3.88 3.88 0 00.51-4.9L11.47 1.8a3.9 3.9 0 00-6.05-.65l-.64.65-2.32 2.32C-.29 6.86-.74 11 1.16 16.09c1.63 4.35 4.9 9.11 9.2 13.41 4.39 4.4 9.28 7.73 13.77 9.37 4.44 1.62 9.16 1.82 12.5-1.53l2.18-2.18a3.9 3.9 0 00-.61-6.02zm-6.9-3.82l5.92 5.04c.03.02.06.05.1.06 1.26.81 1.45 2.58.39 3.64l-.16.16-10.11-7.57.99-.98a2.33 2.33 0 012.87-.35zM10.16 2.65c.01.01.02.02.03.03l4.28 5.96c.58.93.45 2.12-.33 2.9l-.96.95L6.35 2.43l.18-.18a2.34 2.34 0 013.63.4zm14.5 34.75c-4.27-1.56-8.96-4.76-13.2-9-4.15-4.15-7.28-8.71-8.84-12.86-1.17-3.11-1.95-7.43.95-10.33l1.65-1.65 6.84 10.05-1.15 1.16a2.33 2.33 0 00-.54 2.48c.25 1.02 1.38 3.12 2.53 4.66a22.92 22.92 0 009.74 7.5c.88.36 1.88.16 2.55-.5l1.13-1.14 10.11 7.57-.9.9c-3.1 3.1-7.62 2.34-10.87 1.16z"/><path d="M16.7 28.63c-.83-.72-2.26-1.97-3-2.74a51.37 51.37 0 01-4.93-5.85.78.78 0 10-1.29.89 52.9 52.9 0 005.1 6.05c.79.81 2.23 2.07 3.09 2.82a.78.78 0 001.03-1.17z"/></g><defs><clipPath id="clip0"><path fill="#fff" d="M0 0h40v40H0z"/></clipPath></defs></svg>