<svg width="77" height="77" viewBox="0 0 77 77" fill="none" xmlns="http://www.w3.org/2000/svg">
<g clip-path="url(#clip0)">
<path d="M75.8721 60.2778H74.5889V19.2113C74.5889 16.5952 72.4606 14.4667 69.8444 14.4667H50.5558C49.9328 14.4667 49.4278 14.9717 49.4278 15.5946C49.4278 16.2177 49.9328 16.7225 50.5558 16.7225H69.8443C71.2166 16.7225 72.3329 17.839 72.3329 19.2113V60.2776H13.1829C12.56 60.2776 12.055 60.7825 12.055 61.4055C12.055 62.0285 12.56 62.5335 13.1829 62.5335H74.5682C74.0904 64.0207 72.6939 65.0997 71.0499 65.0997H5.95006C4.30614 65.0997 2.90961 64.0205 2.43182 62.5335H8.36157C8.98449 62.5335 9.4895 62.0285 9.4895 61.4055C9.4895 60.7825 8.98449 60.2776 8.36157 60.2776H4.66692V19.2113C4.66692 17.839 5.78327 16.7225 7.15559 16.7225H26.4444C27.0673 16.7225 27.5723 16.2177 27.5723 15.5946C27.5723 14.9717 27.0673 14.4667 26.4444 14.4667H7.15574C4.53954 14.4667 2.41121 16.5952 2.41121 19.2113V60.2776H1.12793C0.505012 60.2776 0 60.7825 0 61.4055C0 64.6863 2.66928 67.3556 5.95006 67.3556H71.0498C74.3307 67.3556 76.9999 64.6863 76.9999 61.4055C77 60.7826 76.495 60.2778 75.8721 60.2778Z" fill="black"/>
<path d="M27.5732 20.4161C27.5732 19.7932 27.0681 19.2882 26.4452 19.2882H8.36151C7.73859 19.2882 7.23358 19.7932 7.23358 20.4161V56.5827C7.23358 57.2056 7.73859 57.7106 8.36151 57.7106H68.6391C69.262 57.7106 69.7671 57.2056 69.7671 56.5827V20.4161C69.7671 19.7932 69.262 19.2882 68.6391 19.2882H50.5563C49.9334 19.2882 49.4284 19.7932 49.4284 20.4161C49.4284 21.0392 49.9334 21.5441 50.5563 21.5441H67.511V55.4547H52.8892V39.43C52.8892 36.9638 51.3376 34.7247 49.0283 33.8588L43.2951 31.709C43.2651 31.6977 43.2448 31.6684 43.2448 31.6363V28.5011C45.4277 26.9909 46.8614 24.4711 46.8614 21.6218V14.3575C47.6174 13.3597 48.0669 12.1173 48.0669 10.7717C48.0669 10.1488 47.5619 9.6438 46.939 9.6438H36.089C32.8081 9.6438 30.139 12.3131 30.139 15.5939V21.6217C30.139 24.471 31.5726 26.9908 33.7556 28.501V31.6362C33.7556 31.6684 33.7353 31.6975 33.7052 31.7088L27.972 33.8586C25.6627 34.7246 24.1112 36.9636 24.1112 39.4299V55.4546H9.48944V21.5441H26.4454C27.0681 21.5441 27.5732 21.039 27.5732 20.4161ZM36.0892 11.8997H45.6352C45.1574 13.3869 43.7609 14.4659 42.117 14.4659H32.5709C33.0487 12.9789 34.4453 11.8997 36.0892 11.8997ZM32.3948 21.6217V16.7218H42.1168C43.005 16.7218 43.8478 16.5248 44.6055 16.1742V21.6217C44.6055 24.9882 41.8667 27.7271 38.5001 27.7271C35.1334 27.7271 32.3948 24.9882 32.3948 21.6217ZM34.4973 33.8212C35.4029 33.4815 36.0114 32.6035 36.0114 31.6363V29.6047C36.7978 29.8504 37.6338 29.9831 38.5001 29.9831C39.3663 29.9831 40.2024 29.8504 40.9888 29.6047V31.6363C40.9888 32.6036 41.5972 33.4816 42.5029 33.8212L44.2665 34.4825C43.4242 36.8965 41.1148 38.577 38.4999 38.577C35.8874 38.577 33.576 36.8958 32.7334 34.4825L34.4973 33.8212ZM26.3672 39.43C26.3672 37.8987 27.3304 36.5087 28.7643 35.971L30.6219 35.2744C31.791 38.5532 34.9414 40.8329 38.5002 40.8329C42.0622 40.8329 45.2098 38.554 46.3785 35.2743L48.2364 35.971C49.6702 36.5087 50.6335 37.8987 50.6335 39.43V55.4547H48.0672V43.3215C48.0672 42.6986 47.5622 42.1936 46.9393 42.1936C46.3163 42.1936 45.8113 42.6986 45.8113 43.3215V55.4547H31.1895V43.3215C31.1895 42.6986 30.6844 42.1936 30.0615 42.1936C29.4386 42.1936 28.9336 42.6986 28.9336 43.3215V55.4547H26.3673V39.43H26.3672Z" fill="black"/>
<path d="M22.7502 30.061C22.7502 27.4448 20.6217 25.3165 18.0055 25.3165C15.3893 25.3165 13.261 27.4448 13.261 30.061C13.261 32.6772 15.3893 34.8055 18.0055 34.8055C20.6217 34.8055 22.7502 32.6772 22.7502 30.061ZM18.0057 32.5498C16.6333 32.5498 15.517 31.4333 15.517 30.0611C15.517 28.6888 16.6333 27.5725 18.0057 27.5725C19.378 27.5725 20.4945 28.6888 20.4945 30.0611C20.4943 31.4333 19.378 32.5498 18.0057 32.5498Z" fill="black"/>
<path d="M19.2112 37.3721H14.3889C13.766 37.3721 13.261 37.8771 13.261 38.5C13.261 39.1229 13.766 39.6279 14.3889 39.6279H19.211C19.834 39.6279 20.339 39.1229 20.339 38.5C20.339 37.8771 19.8341 37.3721 19.2112 37.3721Z" fill="black"/>
<path d="M19.2112 42.194H14.3889C13.766 42.194 13.261 42.699 13.261 43.3219C13.261 43.9448 13.766 44.4498 14.3889 44.4498H19.211C19.834 44.4498 20.339 43.9448 20.339 43.3219C20.339 42.699 19.8341 42.194 19.2112 42.194Z" fill="black"/>
<path d="M64.945 30.061V27.6498C64.945 26.3631 63.8983 25.3163 62.6115 25.3163H55.3782C54.0915 25.3163 53.0447 26.3631 53.0447 27.6498V30.061C53.0447 31.3478 54.0915 32.3945 55.3782 32.3945H62.6115C63.8981 32.3945 64.945 31.3478 64.945 30.061ZM62.6891 30.061C62.6891 30.1039 62.6544 30.1386 62.6115 30.1386H55.3782C55.3353 30.1386 55.3006 30.1039 55.3006 30.061V27.6498C55.3006 27.6071 55.3353 27.5722 55.3782 27.5722H62.6115C62.6544 27.5722 62.6891 27.6069 62.6891 27.6498V30.061Z" fill="black"/>
<path d="M56.5842 34.9603C55.9613 34.9603 55.4563 35.4653 55.4563 36.0882C55.4563 36.7111 55.9613 37.2161 56.5842 37.2161H62.612C63.2349 37.2161 63.74 36.7111 63.74 36.0882C63.74 35.4653 63.2349 34.9603 62.612 34.9603H56.5842Z" fill="black"/>
</g>
<defs>
<clipPath id="clip0">
<rect width="77" height="77" fill="white"/>
</clipPath>
</defs>
</svg>
