<svg xmlns="http://www.w3.org/2000/svg" width="88" height="88" fill="none"><path fill="#95D148" d="M33.73 29.33H30.8v2.94h2.93v-2.94zM33.73 35.2H30.8v2.93h2.93V35.2zM33.73 41.07H30.8V44h2.93v-2.93zM33.73 46.93H30.8v2.94h2.93v-2.94zM39.6 29.33h-2.93v2.94h2.93v-2.94zM39.6 35.2h-2.93v2.93h2.93V35.2zM39.6 41.07h-2.93V44h2.93v-2.93zM39.6 46.93h-2.93v2.94h2.93v-2.94zM45.47 29.33h-2.94v2.94h2.94v-2.94zM45.47 35.2h-2.94v2.93h2.94V35.2zM45.47 41.07h-2.94V44h2.94v-2.93zM45.47 46.93h-2.94v2.94h2.94v-2.94zM51.33 29.33H48.4v2.94h2.93v-2.94zM39.6 23.47h-2.93v2.93h2.93v-2.93zM45.47 23.47h-2.94v2.93h2.94v-2.93zM51.33 23.47H48.4v2.93h2.93v-2.93zM51.33 35.2H48.4v2.93h2.93V35.2zM51.33 41.07H48.4V44h2.93v-2.93zM51.33 46.93H48.4v2.94h2.93v-2.94zM57.2 29.33h-2.93v2.94h2.93v-2.94zM57.2 35.2h-2.93v2.93h2.93V35.2zM57.2 41.07h-2.93V44h2.93v-2.93zM57.2 46.93h-2.93v2.94h2.93v-2.94zM86.53 22h-22V1.47c0-.8-.65-1.47-1.46-1.47H24.93c-.8 0-1.46.66-1.46 1.47V22h-22C.67 22 0 22.66 0 23.46v52.8c0 .82.66 1.47 1.47 1.47h3.06c-.08.5-.13.98-.13 1.47v7.33c0 .8.66 1.47 1.47 1.47h76.26c.8 0 1.47-.66 1.47-1.47V79.2c0-.5-.05-.98-.13-1.47h3.06c.8 0 1.47-.65 1.47-1.46v-52.8c0-.8-.66-1.47-1.47-1.47zM63.07 63.07c0 1.62-1.32 2.93-2.94 2.93-1.62 0-2.93-1.3-2.93-2.93 0-1.62 1.3-2.94 2.93-2.94 1.62 0 2.93 1.32 2.94 2.94zm-35.2-2.94c1.62 0 2.93 1.32 2.93 2.94 0 1.62-1.3 2.93-2.93 2.93-1.62 0-2.94-1.3-2.94-2.93 0-1.62 1.32-2.93 2.94-2.94zm-8.8 24.94H7.33V79.2c0-3.24 2.63-5.87 5.87-5.87s5.87 2.63 5.87 5.87v5.87zm-8.8-17.6c0-1.62 1.3-2.94 2.93-2.94 1.62 0 2.93 1.32 2.93 2.94 0 1.62-1.3 2.93-2.93 2.93-1.62 0-2.93-1.3-2.93-2.93zm9.02 5.4c-.56-.54-1.18-1-1.86-1.37 2.24-2.35 2.15-6.06-.2-8.3-2.33-2.24-6.05-2.15-8.28.2-2.17 2.26-2.17 5.83 0 8.1-1.4.77-2.57 1.9-3.37 3.3H2.92V24.93h20.54v34.3c-2.02 2.26-1.95 5.7.15 7.87-2.2 1.2-3.77 3.3-4.33 5.76zm14.43 12.2H22V74.8c0-3.24 2.63-5.87 5.87-5.87s5.86 2.63 5.86 5.87v10.27zm17.6 0H36.67V74.8c0-4.05 3.28-7.33 7.33-7.33 4.05 0 7.33 3.28 7.33 7.33v10.27zM39.6 60.13c0-2.43 1.97-4.4 4.4-4.4 2.43 0 4.4 1.97 4.4 4.4 0 2.43-1.97 4.4-4.4 4.4-2.43 0-4.4-1.97-4.4-4.4zm13.33 9.63c-.98-1.73-2.44-3.14-4.2-4.07 3.1-2.6 3.5-7.24.88-10.34-2.6-3.1-7.23-3.5-10.32-.88-3.1 2.6-3.5 7.23-.9 10.33.28.33.58.63.9.9-1.77.92-3.23 2.33-4.2 4.06-.78-1.1-1.8-2-2.97-2.66 2.26-2.3 2.22-6-.08-8.24-1.48-1.45-3.62-2-5.62-1.45V2.94h35.2V57.4c-.48-.12-.97-.2-1.47-.2-3.23 0-5.85 2.6-5.86 5.84 0 1.5.57 2.96 1.62 4.06-1.2.65-2.2 1.56-2.97 2.66zM66 79.2v5.87H54.27V74.8c0-3.24 2.62-5.87 5.86-5.87S66 71.56 66 74.8v4.4zm14.67 5.87H68.93V79.2c0-3.24 2.63-5.87 5.87-5.87s5.87 2.63 5.87 5.87v5.87zm-8.8-17.6c0-1.62 1.3-2.94 2.93-2.94 1.62 0 2.93 1.32 2.93 2.94 0 1.62-1.3 2.93-2.93 2.93-1.62 0-2.93-1.3-2.93-2.93zm13.2 7.33H82.4c-.8-1.4-1.96-2.53-3.36-3.3 2.24-2.35 2.15-6.06-.2-8.3-2.33-2.24-6.05-2.15-8.28.2-2.17 2.26-2.17 5.83 0 8.1-.68.37-1.3.83-1.85 1.36-.55-2.45-2.12-4.55-4.32-5.76 2.1-2.18 2.17-5.6.15-7.87v-34.3h20.54V74.8zM71.87 33.73h-2.94V57.2h2.94V33.73zM80.67 33.73h-2.94V57.2h2.94V33.73zM10.27 33.73H7.33V57.2h2.94V33.73zM19.07 33.73h-2.94V57.2h2.94V33.73zM52.8 5.87H35.2c-.8 0-1.47.65-1.47 1.46v11.74c0 .8.66 1.46 1.47 1.46h17.6c.8 0 1.47-.65 1.47-1.46V7.33c0-.8-.66-1.46-1.47-1.46zM51.33 17.6H36.67V8.8h14.66v8.8z"/></svg>